<?xml version="1.0" standalone="no"?>
<!DOCTYPE svg PUBLIC "-//W3C//DTD SVG 1.1//EN" "http://www.w3.org/Graphics/SVG/1.1/DTD/svg11.dtd" >
<svg xmlns="http://www.w3.org/2000/svg" xmlns:xlink="http://www.w3.org/1999/xlink" version="1.1">
<metadata>
Created by FontForge 20170731 at Sat Apr 19 05:18:37 2003
 By Aleksey,,,
Eruialath (c)
</metadata>
<defs>
<font id="MPMangaFontBold" horiz-adv-x="79" >
  <font-face 
    font-family="MP Manga Font Bold"
    font-weight="300"
    font-style="italic"
    font-stretch="normal"
    units-per-em="1000"
    panose-1="2 5 6 4 5 5 5 2 2 4"
    ascent="800"
    descent="-200"
    x-height="698"
    cap-height="702"
    bbox="-20 -126 936.299 892"
    underline-thickness="20"
    underline-position="-163"
    slope="15"
    unicode-range="U+0020-2122"
  />
<missing-glyph horiz-adv-x="716" 
d="M659 692l-91 -38q-37 -15 -73 -23t-62 -9q-32 -2 -55.5 6.5t-44.5 25.5q-25 20 -64 16t-84 -23t-93 -48t-89 -60l18 -7q141 85 273 84q19 1 29.5 -9.5t19.5 -22t20 -20.5t31 -5q36 0 106.5 32t184.5 96zM330 249q-165 -17 -168 -118q-5 -114 103 -125q19 -1 35.5 -2
t32.5 -1q51 0 85 11q76 26 110 102q29 69 30 165q-29 -53 -64 -79q2 -100 -79 -150q-26 -23 -68.5 -33t-79.5 -7q-38 8 -52.5 44t5.5 94q13 39 46 59t76 34q320 134 110 279q-26 16 -57 16q-78 -3 -82.5 -43t24.5 -70q8 56 39 81.5t71 8.5q72 -58 26 -144.5t-136 -120.5
q-17 33 -26.5 60.5t-21 51.5t-28.5 46.5t-44 43.5q-11 -32 -39 -64q80 -23 152 -139z" />
    <glyph glyph-name=".notdef" horiz-adv-x="716" 
d="M659 692l-91 -38q-37 -15 -73 -23t-62 -9q-32 -2 -55.5 6.5t-44.5 25.5q-25 20 -64 16t-84 -23t-93 -48t-89 -60l18 -7q141 85 273 84q19 1 29.5 -9.5t19.5 -22t20 -20.5t31 -5q36 0 106.5 32t184.5 96zM330 249q-165 -17 -168 -118q-5 -114 103 -125q19 -1 35.5 -2
t32.5 -1q51 0 85 11q76 26 110 102q29 69 30 165q-29 -53 -64 -79q2 -100 -79 -150q-26 -23 -68.5 -33t-79.5 -7q-38 8 -52.5 44t5.5 94q13 39 46 59t76 34q320 134 110 279q-26 16 -57 16q-78 -3 -82.5 -43t24.5 -70q8 56 39 81.5t71 8.5q72 -58 26 -144.5t-136 -120.5
q-17 33 -26.5 60.5t-21 51.5t-28.5 46.5t-44 43.5q-11 -32 -39 -64q80 -23 152 -139z" />
    <glyph glyph-name=".null" horiz-adv-x="0" 
 />
    <glyph glyph-name="nonmarkingreturn" horiz-adv-x="500" 
 />
    <glyph glyph-name="space" unicode=" " horiz-adv-x="500" 
 />
    <glyph glyph-name="exclam" unicode="!" horiz-adv-x="346" 
d="M123 745l19 25q11 15 40 22q19 5 36 5q60 -10 69 -81q-1 -131 -132 -428q-29 -65 -65 -65q-4 0 -8 1h1q-28 4 -27 72q5 350 67 449zM-15 69q-2 70 78 70q75 0 75 -65q0 -31 -19 -50.5t-50 -21.5q-37 -2 -60 13q-26 18 -24 54z" />
    <glyph glyph-name="quotedbl" unicode="&#x22;" horiz-adv-x="503" 
d="M12 715q17 29 45 89q14 29 71 29q22 0 43 -6q29 -8 29 -25q0 -20 -41 -58q-24 -20 -71 -62q-37 -35 -70 -35q-21 0 -21 21q0 15 15 47zM258 752q11 22 25 51.5t70 29.5q22 0 43 -7q30 -9 30 -25q0 -20 -41 -58q-24 -20 -71 -62q-37 -35 -70 -35q-21 0 -21 21q0 18 35 85z
" />
    <glyph glyph-name="numbersign" unicode="#" horiz-adv-x="729" 
d="M210 644q29 5 51 -14.5t21 -49.5l-1 -55q0 -12 -2 -14l95 35q4 1 9 19l-2 45q-4 84 64 91h9q58 0 58 -79v-20q0 -13 -1 -14q0 -1 7 1l38 9q25 6 41 6q39 0 46 -26q16 -60 -72 -86l-47 -14q-5 -3 -5 -49v-51q0 -17 2 -20q1 -3 9 0l38 13q32 11 53 11q34 0 42 -31
q9 -33 -18 -57q-21 -20 -57 -29l-50 -13q-17 -4 -17 -32l-1 -90q-1 -63 -65 -72q-57 -8 -61 66l-4 72q0 4 4 8q-3 -1 -9 -4l-90 -31q-13 -3 -13 -45v-62q0 -28 -19.5 -46t-47.5 -17q-65 2 -65 89q0 15 1 17l-6 -3l-46 -20q-18 -8 -33 -8q-42 0 -57 37q-5 12 -5 23
q0 34 62 61l77 33q8 3 8 36v73l-33 -18q-29 -16 -62 -16q-48 0 -63 34q-6 14 -6 25q0 36 61 59l86 33q13 5 13 39l-1 80q-1 71 64 71zM373 429l-61 -22q-31 -11 -31 -56v-50q0 -20 -1 -22q0 -1 3 -1l86 32q20 7 20 40v58q-4 21 -5 23t-11 -2z" />
    <glyph glyph-name="dollar" unicode="$" horiz-adv-x="480" 
d="M225 699q46 -2 46 -47q0 -1 -7 -43q34 2 65 2q76 0 76 -31t-31 -54q-17 -13 -41 -13q-10 0 -25.5 4.5t-22.5 4.5q-18 0 -19 -24l-2 -83q0 -20 10 -25q4 -2 29 -4q114 -10 114 -86q0 -20 -9 -45q-35 -96 -115 -125q-26 -19 -26 -35l1 -36q2 -58 -59 -58t-64 63
q-1 12 -78 50t-77 68q0 21 31 41q20 13 42 13q27 0 47.5 -25t25.5 -25t5 11l2 96q0 22 -5 22q-60 8 -97 32q-49 32 -49 68q0 17 11 41q38 85 135 125q10 2 13 20l4 48q2 24 24 38.5t46 11.5zM142 468q0 2 1 5q-25 -24 -25 -41q0 -16 20 -25v4q0 -6 1 10zM292 267
q-6 23 -29 27q1 -1 1 -6l2 -74q0 -4 15 17.5t11 35.5z" />
    <glyph glyph-name="percent" unicode="%" horiz-adv-x="608" 
d="M296 622q26 78 88 78q15 0 31 -6q46 -18 46 -58q0 -21 -10 -46q-121 -304 -256 -534q-26 -60 -73 -60q-14 0 -27 7q-43 23 -43 61q0 24 20 59q142 247 224 499zM100 439q-45 0 -79 27q-37 30 -37 74q0 46 35 75t81 29q44 0 79.5 -30.5t35.5 -73.5q0 -30 -20.5 -55
t-49.5 -37q-21 -9 -45 -9zM431 46q-79 0 -109 66q-9 18 -9 37q0 45 36 74t82 29q43 0 78.5 -30.5t35.5 -72.5q0 -39 -34 -71t-80 -32zM431 128q-3 0 -1 7q4 9 4 11q0 4 -2 12q-1 5 -1 7l-1 -4q-2 -4 -2 -15q0 -10 2 -14zM96 523q-3 0 -1 6q4 9 4 11q0 4 -2 12q-1 5 -1 7
l-1 -4q-2 -4 -2 -15q0 -10 2 -13z" />
    <glyph glyph-name="ampersand" unicode="&#x26;" horiz-adv-x="663" 
d="M475 47l-62 41q-4 2 -4 4q-22 -39 -77.5 -65t-115.5 -26q-115 0 -177 71q-54 62 -54 127q14 141 135 190q6 6 6 18q0 9 -9 22q-37 51 -37 111q0 83 56 127q42 32 118 32q190 0 190 -147q0 -100 -103 -175q-14 -10 -14 -26q0 -29 61 -87q1 -2 4 -5v5q0 3 2 9q18 53 70 53
q24 0 46 -14q27 -17 18 -39l-26 -67q-10 -12 -8 -21q1 -10 6 -14l26 -19l37 -20q38 -21 38 -40q0 -12 -12 -28q-15 -34 -59 -34q-29 0 -55 17zM245 466q8 -6 16 -6q17 0 33 19q24 28 31 63q-5 50 -57 56q-33 4 -44 -7.5t-10 -45.5q2 -53 31 -79zM300 140q8 5 9 18
q0 12 -10 23q-56 58 -85 109q-11 19 -13 23q-3 -1 -12 -8q-59 -26 -59 -98q0 -15 2 -31q36 -74 81 -74q32 0 87 38z" />
    <glyph glyph-name="quotesingle" unicode="'" horiz-adv-x="265" 
d="M26 770q6 11 25 50q14 29 72 29q23 0 45 -7q30 -9 30 -27t-30 -42q-64 -64 -134 -112q-27 -18 -42 -18q-12 0 -12 15q0 28 46 112z" />
    <glyph glyph-name="parenleft" unicode="(" 
 />
    <glyph glyph-name="parenright" unicode=")" 
 />
    <glyph glyph-name="asterisk" unicode="*" horiz-adv-x="424" 
d="M271 712q-1 -2 -1 -8t2 -8l35 -26q38 -28 38 -49q0 -15 -12 -32q-14 -21 -37 -21q-14 0 -69 43l-1 -56q0 -21 -27 -36q-22 -13 -45 -13q-45 0 -45 35q0 10 7 31.5t14 24.5l-38 -25q-14 -9 -30 -9q-19 0 -37 12.5t-18 31.5q0 18 43 46q18 11 45 37q6 9 -2 14l-77 44
q-24 14 -24 40q0 44 42 44q14 0 28 -8t37 -20q5 -3 8 -2q2 0 1 5l-6 36q-4 24 25 38q22 11 51 11q28 0 38 -25q4 -13 6 -49q1 -19 5 -19q2 0 4 2q35 35 55 35q21 0 47.5 -18t26.5 -32q0 -7 -89 -74z" />
    <glyph glyph-name="plus" unicode="+" horiz-adv-x="575" 
d="M172 519q0 66 65 66q76 0 80 -73q1 -16 0 -41q-2 -32 -2 -42q0 -40 13 -39q100 10 103 10q77 0 81 -55t-86 -63h-11q-8 -1 -12 -1h-16q-67 0 -67 -33v-22q0 -92 -36 -124q-16 -14 -45 -12q-61 4 -61 83q0 16 3.5 45t3.5 42q1 19 -2 19q-131 0 -175 22q-24 12 -23 35
q2 29 30 45q23 14 54 14q14 0 41 -5t41 -5q29 0 28 22q-1 15 -2 45q0 9 -3 34q-2 21 -2 33z" />
    <glyph glyph-name="comma" unicode="," horiz-adv-x="213" 
d="M80 130q73 -19 71 -74q-2 -48 -81 -141q-21 -25 -48 -25q-24 0 -24 22q0 14 16 42t16 38q0 9 -8 12q-35 16 -35 54q0 35 30 56q27 18 63 16z" />
    <glyph glyph-name="hyphen" unicode="-" horiz-adv-x="576" 
d="M408 396h11q74 0 77 -51q4 -54 -81 -59q-89 -5 -156 -5q-120 0 -186 10q-75 11 -72 45q2 26 28 42q23 14 51 14h11q6 0 12 -2q38 -8 101 -8q28 0 204 14z" />
    <glyph glyph-name="hyphen" unicode="&#x2010;" horiz-adv-x="576" 
d="M408 396h11q74 0 77 -51q4 -54 -81 -59q-89 -5 -156 -5q-120 0 -186 10q-75 11 -72 45q2 26 28 42q23 14 51 14h11q6 0 12 -2q38 -8 101 -8q28 0 204 14z" />
    <glyph glyph-name="period" unicode="." horiz-adv-x="206" 
d="M64 0q-29 0 -52 17q-26 19 -26 47t25 48q24 17 53 17q28 0 52.5 -18.5t24.5 -46.5q0 -27 -24.5 -45.5t-52.5 -18.5z" />
    <glyph glyph-name="slash" unicode="/" horiz-adv-x="457" 
d="M228 624q26 78 89 78q15 0 31 -6q46 -18 46 -60q0 -19 -10 -44q-126 -311 -257 -535q-26 -60 -73 -60q-14 0 -27 7q-43 23 -43 61q0 24 20 59q141 251 224 500z" />
    <glyph glyph-name="zero" unicode="0" horiz-adv-x="719" 
d="M396 700q115 0 185 -79q74 -84 74 -200q0 -87 -41 -192q-64 -104 -152 -162q-95 -63 -200 -67q-61 -2 -124 28q-56 27 -93 79q-59 101 -59 186v11q0 6 1 11q10 107 33 156q31 65 95 127q38 38 95 62q96 40 186 40zM361 576q-80 -6 -156 -86q-67 -71 -73 -152
q-7 -95 47 -159q39 -33 93 -33q90 0 142 45q36 31 73 97q35 62 35 121q0 60 -39 112q-42 57 -100 57q-10 0 -22 -2z" />
    <glyph glyph-name="one" unicode="1" horiz-adv-x="296" 
d="M230 603q-56 -214 -85 -531q-7 -74 -103 -72q-60 15 -54 82q24 294 93 547q9 32 38 54t61 17q60 -9 60 -53q0 -17 -10 -44z" />
    <glyph glyph-name="two" unicode="2" horiz-adv-x="564" 
d="M274 687q36 15 74 15q75 0 107 -47q46 -68 46 -130q0 -59 -44 -117q-38 -75 -295 -235q-38 -34 -38 -53q0 -6 5 -9q29 5 86 15q70 10 115 10q100 0 134 -30q15 -14 15 -31q0 -36 -39 -60q-20 -13 -46 -13q-16 0 -46 9t-49 9q-26 0 -73.5 -10t-73.5 -10q-55 0 -101 19
q-66 27 -66 89q0 17 4 32q39 79 178 161q90 70 145 128q51 53 51 90q0 15 -11 30q-19 26 -41 26q-45 0 -136 -117q-29 -20 -57 -20q-30 0 -48 19t-18 35q0 17 15 40q61 94 207 155z" />
    <glyph glyph-name="three" unicode="3" horiz-adv-x="587" 
d="M312 698q18 3 35 3q74 0 110 -48q49 -66 49 -132q0 -70 -54 -143q-20 -20 -20 -37t20 -26q72 -48 72 -102q0 -59 -87 -133q-73 -62 -244 -82q-108 2 -175 54q-32 25 -32 44t31 42q19 14 47 14q51 0 110 -45q24 -8 48 -8q65 0 145 65q18 15 18 32q0 43 -83 84
q-42 21 -42 41q0 11 19 34q13 16 27 32q8 10 31 37q37 43 37 82q0 25 -17 49t-41 24q-42 0 -132 -109q-29 -23 -60 -23q-24 0 -42 13.5t-18 36.5q0 15 10 32q32 54 104 105.5t134 63.5z" />
    <glyph glyph-name="four" unicode="4" horiz-adv-x="570" 
d="M11 631q5 26 35 40q27 13 54 8q47 -9 47 -45q0 -16 -12 -54q-15 -47 -17 -56q-9 -43 -16 -93q-2 -14 -2 -22q0 -23 14 -22q59 3 161 44q39 16 55 66q11 43 39 129q32 75 71 75q31 0 56 -24q11 -11 11 -27t-11 -43q-94 -232 -104 -518q5 -77 -61 -85q-13 -5 -28 -5
q-52 0 -50 82q2 94 28 199q6 26 5 34q-1 6 -5 5q-60 -15 -179 -52q-16 -5 -35 -5q-36 0 -58 26q-25 27 -25 77v24q0 95 27 242z" />
    <glyph glyph-name="five" unicode="5" horiz-adv-x="615" 
d="M534 678q23 -15 17 -44q-6 -28 -41 -40q-27 -9 -59 -6q-89 9 -151 9q-43 0 -75 -3q-18 -2 -30 -29q-9 -23 -9 -44q0 -37 26 -37h22q141 0 209 -44.5t68 -115.5q0 -26 -8 -54q-38 -134 -160 -220q-91 -50 -179 -50q-90 0 -149 50q-29 25 -29 46q0 22 27 50q17 18 47 18
t57 -21q44 -35 83 -35q47 0 110 51q60 66 60 119q0 60 -76 91q-44 18 -115 18q-29 0 -57 -2q-39 -3 -59 23q-18 23 -17 62q4 116 53 180q20 26 51 32q97 19 205 19q29 0 56 -1q51 -3 64 -5q39 -5 59 -17z" />
    <glyph glyph-name="six" unicode="6" horiz-adv-x="635" 
d="M239 666q85 35 148 35q135 0 178 -142q7 -23 7 -38q0 -24 -20.5 -38t-45.5 -14q-51 0 -69 55q-27 83 -73 83q-27 0 -68 -23q-100 -88 -111 -171q-2 -14 -1 -17q0 -6 7 -6q10 0 48 11q35 10 68 10q73 0 122 -42q85 -48 83 -176q-12 -94 -94 -147q-73 -47 -172 -47
q-146 0 -215 72q-35 36 -45 85q-2 10 -2 22q0 48 42 191q64 218 213 297zM244 306q-111 -19 -128 -124q-2 -10 -2 -18q0 -34 25 -49q36 -22 107 -17q70 5 108 35q33 26 30 77q10 100 -91 100q-26 0 -49 -4z" />
    <glyph glyph-name="seven" unicode="7" horiz-adv-x="571" 
d="M110 697q54 3 116 3q124 0 203 -19t79 -66q0 -39 -35 -82q-154 -192 -210 -276q-76 -115 -97 -187q-20 -68 -103 -70q-53 10 -53 53q0 19 12 47q82 189 289 422q32 26 32 42q0 17 -78 22q-30 2 -62 2q-66 0 -137 -9q-82 -10 -82 59q0 22 28 37q33 18 98 22z" />
    <glyph glyph-name="eight" unicode="8" horiz-adv-x="620" 
d="M237 0q-108 -3 -172 32q-81 44 -81 144v11q0 33 38 93q26 40 72 80q21 18 21 46q0 22 -15 45q-8 34 -8 58q0 65 43 111q46 50 132 72q34 9 89 9q53 0 92 -15q108 -41 108 -124q0 -41 -28 -100q-13 -27 -13 -44q0 -13 7 -24q35 -53 35 -134v-15q0 -8 -1 -16
q1 -123 -103 -181q-81 -45 -216 -48zM314 434q98 20 126 106q4 12 4 25q0 26 -25 37q-30 12 -81 8q-62 -5 -96.5 -27.5t-36.5 -66.5q-2 -50 30 -69q25 -15 79 -13zM282 343q-117 -34 -162 -129q-2 -14 -2 -25q0 -94 143 -94q156 0 173 108q2 13 2 17v15q0 109 -133 109h-11
q-6 -1 -10 -1z" />
    <glyph glyph-name="nine" unicode="9" horiz-adv-x="635" 
d="M319 34q-83 -34 -149 -34q-137 0 -177 142q-8 28 -8 40q0 24 22 39q19 12 44 12q56 0 72 -52q24 -80 68 -80q27 0 70 25q98 57 121 168q1 6 4 16q1 5 -2 5t-22 -8q-63 -13 -108 -13q-84 0 -125 38q-85 48 -83 175q7 66 54 115t128 69q36 9 89 9q140 0 209 -70
q35 -37 45 -86q2 -10 2 -21q0 -46 -42 -191q-62 -216 -212 -298zM309 405q102 21 118 114q2 9 2 17q0 31 -23 45q-34 19 -100 15q-64 -4 -100 -31q-32 -25 -30 -72q-8 -92 86 -92q-5 0 47 4z" />
    <glyph glyph-name="colon" unicode=":" horiz-adv-x="234" 
d="M92 455q-31 0 -57 19t-26 49t27 51q25 18 56 18q29 0 55 -20t26 -49q0 -28 -26 -48t-55 -20zM64 -1q-31 0 -55 18q-27 20 -27 50t27 51q24 18 55 18q29 0 55.5 -20t26.5 -49t-26.5 -48.5t-55.5 -19.5z" />
    <glyph glyph-name="semicolon" unicode=";" horiz-adv-x="236" 
d="M94 460q-32 0 -56 18q-27 19 -27 50t27 51q24 18 56 18q30 0 56 -20t26 -49t-26.5 -48.5t-55.5 -19.5zM81 137q74 -21 72 -76q-1 -48 -83 -145q-22 -26 -48 -26q-25 0 -25 23q0 15 12 37q17 31 19 36q6 16 -6 21q-41 16 -41 55l5.5 25.5t37.5 39.5q25 11 57 10z" />
    <glyph glyph-name="less" unicode="&#x3c;" horiz-adv-x="778" 
d="M62 486q153 79 563 157q29 2 53 -7q31 -11 36 -36q2 -10 2 -19q0 -58 -73 -62q-81 -4 -166 -17q-63 -10 -159 -38q-91 -22 -116 -33q-34 -17 -34 -35q0 -21 56 -48q1 -1 74 -31q118 -49 322 -92q78 -17 78 -79q-9 -44 -82 -44h-15q-7 0 -15 2q-322 79 -527 219
q-63 43 -68 83q-5 41 71 80z" />
    <glyph glyph-name="equal" unicode="=" horiz-adv-x="578" 
d="M430 549q30 0 53 -12q28 -14 29 -41q1 -31 -29 -48q-23 -14 -57 -16q-105 -6 -190 -6q-118 0 -173 12q-27 -1 -47 9q-26 13 -27 37q12 61 79 61q22 0 65.5 -6t66.5 -6q40 0 92 4q15 1 69 7q44 5 69 5zM416 323h10q81 0 84 -53q2 -30 -29 -48q-24 -13 -57 -15
q-106 -6 -193 -6q-123 0 -170 12q-27 -1 -47 9q-26 12 -26 36q5 29 27 45.5t53 16.5q12 0 26 -3q42 -9 108 -9q40 0 90 4q13 0 62 6q38 5 62 5z" />
    <glyph glyph-name="greater" unicode="&#x3e;" horiz-adv-x="779" 
d="M646 259q-153 -79 -563 -157q-28 -2 -53 7q-31 11 -36 36q-17 77 71 81q84 4 166 17q62 10 159 38q93 22 116 34q34 16 34 34q0 22 -56 49q-3 1 -74 30q-123 50 -322 92q-78 17 -78 79q9 44 82 44q14 0 30 -2q324 -80 527 -219q63 -43 68 -83q5 -41 -71 -80z" />
    <glyph glyph-name="question" unicode="?" horiz-adv-x="671" 
d="M309 801q140 0 242 -78q57 -44 57 -94q0 -13 -4 -29q-25 -102 -126 -157q-107 -58 -168 -104q-5 -4 -74 -85q-19 -23 -40 -23q-17 0 -25.5 13t-6.5 30q10 88 89 147q76 57 85 64q47 36 82 69t35 64q0 39 -47 59q-47 7 -77 7q-95 0 -174 -45q-60 -46 -112 -46
q-25 0 -40 14q-20 19 -20 41q0 32 43 72q33 31 91 52q79 29 190 29zM167 138q34 1 59 -14q29 -18 29 -51q0 -73 -85 -73q-78 0 -76 71q2 65 73 67z" />
    <glyph glyph-name="at" unicode="@" 
 />
    <glyph glyph-name="A" unicode="A" horiz-adv-x="584" 
d="M273 688q19 13 41 13q49 0 75 -40q34 -52 43 -150q6 -64 21 -156q16 -107 32 -160q36 -121 36 -146q0 -16 -5 -20q-16 -30 -55 -30q-22 0 -43 11q-29 30 -55 106q-8 47 -41 47q-49 0 -202 -127q-38 -32 -77 -32q-59 0 -59 59q0 10 3 24l18 84q28 131 102 286
q84 176 166 231zM290 531q-22 12 -82 -123q-64 -143 -64 -185q0 -24 17 -24t60 27q110 54 104 136q-13 169 -35 169z" />
    <glyph glyph-name="B" unicode="B" horiz-adv-x="602" 
d="M308 700q103 0 155 -63q8 -21 8 -41q0 -39 -28 -84q-12 -19 -12 -35q0 -17 15 -29q49 -38 83 -119q10 -24 10 -46q0 -40 -25 -73q-65 -85 -186 -148q-124 -64 -228 -64q-39 0 -67 18q-33 21 -38 57q-10 69 -10 177q0 116 9 265q7 109 102 147t212 38zM166 586
q-22 -12 -31 -37q-16 -45 -16 -75q0 -46 44 -46q15 0 31 4q93 23 134 75q13 32 13 55q0 45 -64 45q-73 0 -111 -21zM283 368q-54 -5 -128 -46q-38 -30 -38 -103v-11q0 -41 13 -63q8 -16 27 -16q14 0 39 9q201 73 201 159q-19 79 -114 71z" />
    <glyph glyph-name="C" unicode="C" horiz-adv-x="668" 
d="M294 677q72 23 126 23q160 0 185 -171q1 -29 -19 -47.5t-49 -18.5q-46 0 -69 44q-26 88 -68 88q-15 0 -35 -9q-157 -102 -224 -307q-10 -30 -10 -60q0 -64 42 -89q54 -32 100 -32q71 0 142 79q46 71 100 71q19 0 33.5 -10.5t14.5 -29.5q0 -6 -2 -12q-15 -142 -210 -188
q-58 -8 -107 -8q-142 0 -208 70q-36 38 -49 90q-2 16 -2 35q0 84 52 192q44 94 109.5 170.5t147.5 119.5z" />
    <glyph glyph-name="D" unicode="D" horiz-adv-x="609" 
d="M243 699q238 0 302 -194q3 -9 3 -24q0 -45 -38 -108q-108 -180 -261 -317q-61 -55 -121 -57q-36 -1 -66 9q-41 13 -45 43q-32 265 -32 489q0 77 37 108q22 18 68 32q64 19 153 19zM201 585q-69 -14 -78 -62q8 -131 11 -172q7 -97 17 -171q5 -36 12 -36t36 26
q89 79 184 249q24 43 24 74q0 26 -19 43q-63 56 -130 56q-23 0 -57 -7z" />
    <glyph glyph-name="E" unicode="E" horiz-adv-x="527" 
d="M312 695q26 6 46 6q63 0 63 -43q0 -66 -89 -70q-161 -27 -191 -69q-16 -38 -16 -65q0 -36 22 -50t173 32q13 4 29 4q52 0 57 -47q6 -51 -65 -70q-71 -5 -112 -14q-79 -17 -93 -51q-11 -26 -11 -50q0 -42 37 -70q1 -2 8 -2q38 0 198 68q14 6 32 6q41 0 56 -29q9 -18 9 -33
q0 -34 -53 -54q-116 -43 -294 -88q-22 -9 -42 -9q-53 0 -67 43q-18 58 -23 254l-2 54v51q0 96 10 147q8 43 69 69q109 47 249 80z" />
    <glyph glyph-name="F" unicode="F" horiz-adv-x="474" 
d="M311 696q18 3 32 3q27 0 47 -10q27 -12 22 -37q-5 -28 -35 -45q-26 -16 -57 -18q-88 -7 -161 -34q-43 -26 -43 -94q0 -54 32 -52q99 5 165 29q11 4 26 4q22 0 40 -12t20 -33q3 -29 -19 -47t-52 -21q-90 -10 -183 -37q-23 -7 -23 -68q0 -40 16 -146q8 -52 -54 -73
q-12 -4 -25 -4q-43 0 -54 40q-19 72 -19 228v23q0 14 -1 43t-1 43q0 78 10 176q16 49 68 72q102 45 249 70z" />
    <glyph glyph-name="G" unicode="G" horiz-adv-x="746" 
d="M295 677q72 23 126 23q159 0 184 -171q0 -29 -19.5 -51t-48.5 -22q-38 0 -61 42q-16 86 -62 86q-31 0 -87 -32q-113 -64 -182 -242q-16 -41 -16 -75q0 -66 56 -107q59 -24 103 -24q73 0 123 71q16 31 14 42t-14 10q-26 -3 -42 -3q-79 0 -75 42q5 52 91 54q104 2 196 26
q16 4 32 4q69 0 69 -61q0 -38 -69 -41q-18 -1 -49 -61q-34 -67 -88 -115q-60 -54 -127 -65q-47 -8 -96 -8q-151 0 -216 70q-51 54 -51 110v18q0 84 51 191q44 93 109.5 169.5t148.5 119.5z" />
    <glyph glyph-name="H" unicode="H" horiz-adv-x="496" 
d="M292 611q-2 75 56 88q13 3 20 3q56 0 58 -77q1 -30 5 -116q4 -74 4 -117v-25q0 4 -6 -269q-2 -70 -68 -70q-56 0 -56 63q0 76 -2 148q4 23 4 37t-5 17q-2 0 -59 -16q-120 -34 -120 -89q0 -7 1 -21v-22q0 -150 -71 -147q-31 1 -49.5 21.5t-17.5 51.5q5 147 5 238
q0 133 -6 256q-3 67 67 74q31 3 50 -15t19 -49v-28q0 -23 -1 -68.5t-1 -68.5q0 -53 34 -53q20 0 46 14l48 26q49 28 48 83z" />
    <glyph glyph-name="I" unicode="I" horiz-adv-x="464" 
d="M286 696q24 9 47 9q54 0 54 -46q0 -38 -37 -52l-73 -28q-26 -10 -23 -51q11 -138 11 -317q0 -19 6 -57l61 3q26 1 46 -11t20 -37q0 -24 -17.5 -37t-42.5 -14q-116 -4 -248 -53q-19 -7 -34 -7q-41 0 -41 38q0 40 43 61l65 32q12 3 15 53q3 43 3 93q0 96 -9 215
q-5 63 -22 66l-67 10q-54 -2 -54 41q0 26 23 40q19 12 46 11q21 -1 27 -1q95 0 201 39z" />
    <glyph glyph-name="J" unicode="J" horiz-adv-x="675" 
d="M520 694q14 5 32 5q50 0 59 -35q7 -45 -46 -68l-23 -10q-9 -8 -9 -40q0 -51 7 -157.5t6 -161.5q-1 -106 -54.5 -166t-148.5 -60q-104 0 -197 55q-66 39 -119 98q-42 38 -42 63q0 18 20 35q24 12 53 12q52 0 84 -35q110 -119 187 -119t77 147q0 135 -10 222q-8 66 -33 64
l-49 4q-9 -1 -17 -1q-55 0 -57 47q-2 44 66 52h13q8 -1 12 -1q105 0 189 50z" />
    <glyph glyph-name="K" unicode="K" horiz-adv-x="578" 
d="M316 658q31 42 79 42q28 0 49.5 -16.5t21.5 -43.5q0 -24 -22 -52q-95 -95 -183 -219q-7 -10 -4 -27q2 -18 14 -28q97 -81 183 -119q55 -24 55 -63q0 -27 -26 -43q-22 -13 -51 -13q-20 0 -42 6q-130 68 -231 157q-23 5 -23 -74q0 -47 6 -92q-2 -32 -22 -53t-52 -21
t-50 21.5t-18 53.5v96q0 270 -16 403q-2 65 62 86q12 4 27 4q62 0 64 -71l4 -123q1 -28 4 -28t25 25q33 37 75 94q36 49 71 98z" />
    <glyph glyph-name="L" unicode="L" horiz-adv-x="514" 
d="M66 700q41 1 60 -19t13 -61q-15 -108 -15 -248q0 -105 4 -189q1 -15 1 -30q4 -18 19 -13q101 31 169 68q31 17 64 17q49 0 63 -30q6 -13 6 -25q0 -39 -56 -67q-105 -53 -307 -103q-9 -2 -17 -2q-51 0 -73 73q-15 163 -15 314q0 132 11 234q9 79 73 81z" />
    <glyph glyph-name="M" unicode="M" horiz-adv-x="771" 
d="M542 696q7 1 15 1q50 0 64 -45q25 -81 66 -306q21 -115 21 -199v-17q0 -9 -1 -18q2 -25 -26.5 -41.5t-54.5 -16.5q-63 0 -63 71q0 12 2.5 37t2.5 39q0 88 -21 235v3q-43 -140 -137 -383q-21 -54 -66 -54q-42 0 -52 49l-29 147q-10 68 -27 178q-12 64 -18 79
q-20 -30 -41 -114q-12 -48 -22 -101l-18 -89q-3 -35 -31.5 -59.5t-64.5 -24.5q-55 0 -55 54q0 11 3 25q7 62 60 226q45 140 92 224q57 101 105 101q47 0 68 -94q14 -93 42 -280q10 -69 8 -69q2 0 8 22q7 30 10 37l48 135q18 55 60 163q12 29 22 47q18 35 30 38z" />
    <glyph glyph-name="N" unicode="N" horiz-adv-x="557" 
d="M348 612q-3 74 65 88q72 15 73 -75q0 -36 4 -117q4 -75 4 -116v-25q0 -49 -3 -135q-3 -95 -3 -134q0 -32 -21 -51.5t-54 -19.5q-41 0 -61 29q-45 65 -225 360q-3 3 -6 3q1 -3 3 -54q6 -127 6 -195q0 -79 -4 -111q-8 -62 -74 -60q-68 2 -66 72q3 118 3 262q0 111 -4 232
q-2 72 70 75q23 1 49.5 -9.5t37.5 -28.5q71 -114 215 -339q-2 9 -2 28q-1 71 -3 161z" />
    <glyph glyph-name="O" unicode="O" horiz-adv-x="719" 
d="M396 700q115 0 185 -79q74 -84 74 -200q0 -87 -41 -192q-64 -104 -152 -162q-95 -63 -200 -67q-61 -2 -124 28q-56 27 -93 79q-59 101 -59 186v11q0 6 1 11q10 107 33 156q31 65 95 127q38 38 95 62q96 40 186 40zM361 576q-80 -6 -156 -86q-67 -71 -73 -152
q-7 -95 47 -159q39 -33 93 -33q90 0 142 45q36 31 73 97q35 62 35 121q0 60 -39 112q-42 57 -100 57q-10 0 -22 -2z" />
    <glyph glyph-name="P" unicode="P" horiz-adv-x="571" 
d="M136 683q88 18 152 18q223 0 223 -206q0 -42 -6 -63q-7 -28 -30 -56q-61 -75 -184 -131q-58 -26 -119 -41q-32 -8 -34 -65l-3 -79q-1 -27 -22 -41.5t-49 -14.5q-36 0 -57.5 21.5t-18.5 57.5q7 78 7 228v113q0 53 -2 103t11.5 83t55.5 51q23 10 76 22zM337 593
q-18 13 -46 13q-14 0 -33 -3q-52 -8 -76 -22q-35 -20 -41 -63q-7 -53 -7 -83q0 -67 16 -87q9 -12 30 -12q22 0 69 16q128 44 128 139q0 26 -7 49q-11 36 -33 53z" />
    <glyph glyph-name="Q" unicode="Q" horiz-adv-x="719" 
d="M394 698q120 0 186 -78q74 -88 74 -198q0 -109 -73 -240q-12 -22 -12 -39q0 -15 12 -27q31 -30 31 -50q0 -16 -18 -35q-23 -24 -48 -24q-20 0 -38 13t-34 26q-8 6 -12 3q-64 -50 -171 -50h-16q-8 0 -16 1q-139 2 -214 107q-59 101 -59 186v11q0 6 1 11q10 106 33 155
q32 66 95 127q50 48 130 76q74 25 149 25zM194 494q-68 -78 -74 -168q-7 -113 43 -169q38 -42 90 -42q37 0 94 22q12 5 12 17q0 9 -11.5 25.5t-11.5 34.5q0 26 19 46.5t45 20.5q32 0 58 -32q5 -3 9 -3q7 0 28 43q25 52 25 103q0 56 -30 118q-51 81 -114 81q-97 0 -182 -97z
" />
    <glyph glyph-name="R" unicode="R" horiz-adv-x="641" 
d="M107 680q126 21 218 21q228 0 228 -125q0 -44 -27 -99q-38 -78 -116 -145q-31 -27 -31 -48q0 -6 4 -9q115 -105 178 -156q13 -10 13 -33q0 -27 -18 -46.5t-45 -19.5q-24 0 -53 17q-87 52 -116 71q-65 42 -107 82t-52 46q-27 14 -42 -52q-7 -32 -6 -75q5 -18 5 -38
q0 -63 -62 -70q-81 -9 -86 103l-5 115q-2 55 -2 107q0 141 15 236q14 90 107 118zM188 588q-52 -11 -50 -121q-2 -14 -2 -28q0 -72 64 -72t114 40q102 82 102 139q0 32 -33 50q-46 8 -87 8q-57 0 -108 -16z" />
    <glyph glyph-name="S" unicode="S" horiz-adv-x="596" 
d="M378 700q74 0 76 -59q2 -49 -89 -56q-106 -8 -208 -103q-24 -33 -24 -55q0 -20 19 -25h14q8 -1 13 -1q44 0 94 5l102 9q10 1 14 1h14q130 0 130 -107q0 -77 -55 -153q-35 -49 -116 -108q-68 -50 -134 -50q-78 0 -150 58q-36 29 -36 54q0 26 24.5 45.5t50.5 19.5
q29 0 51 -20q34 -32 68 -32q36 0 91 37q75 91 61 117q-16 29 -77 29q-37 0 -86 -9q-27 -5 -51 -5q-48 0 -109 22q-81 29 -81 88q0 18 6 33q46 115 155 190t233 75z" />
    <glyph glyph-name="T" unicode="T" horiz-adv-x="726" 
d="M539 695q23 6 39 6q30 0 53 -15q27 -17 27 -45q0 -45 -64 -66q-84 -15 -141 -33q-53 -17 -57 -77q-11 -153 -19 -409q-8 -59 -63 -59q-35 0 -62.5 24.5t-25.5 59.5l13 183q4 84 4 154v21q2 18 2 30q0 38 -24 36q-100 -8 -158 -20q-14 -3 -26 -3q-47 0 -47 40
q0 31 24.5 57t55.5 35q115 13 253 35q108 18 216 46z" />
    <glyph glyph-name="U" unicode="U" horiz-adv-x="709" 
d="M581 701q64 0 64 -63q0 -13 -2 -25q-18 -109 -18 -251q0 -131 15 -274q1 -10 1 -11v-11q0 -58 -52 -66q-8 -1 -15 -1q-66 0 -70 93q-5 14 -9 14q-5 0 -30 -14q-168 -72 -281 -72q-197 0 -199 209q-2 192 53 359q26 78 86 78q15 0 26 -3q57 -15 53 -81q-22 -66 -43 -158
q-25 -108 -25 -158v-15q0 -105 64 -105q7 0 23 3q68 9 107 20q52 14 128 47q20 9 20 50v11q0 5 -1 11v44q0 170 11 276q-1 38 16 62q23 31 78 31z" />
    <glyph glyph-name="V" unicode="V" horiz-adv-x="621" 
d="M144 62q-83 160 -159 564q-3 35 22 55q22 17 58 17q30 0 51.5 -16t22.5 -45q5 -94 18 -173q8 -50 38 -163q12 -48 34 -119q14 -35 19 -35q10 0 65 139q26 67 47 135q19 65 45 191q6 31 38 50q27 16 61 16q55 -11 55 -67q0 -14 -2 -22q-81 -326 -223 -529q-39 -56 -96 -62
q-58 -6 -94 64z" />
    <glyph glyph-name="W" unicode="W" horiz-adv-x="772" 
d="M152 4q-60 -15 -79 44q-24 75 -66 306q-21 115 -21 199v18q0 8 1 17q-2 25 28 43q27 15 53 15q62 0 62 -72v-10q0 -11 -2 -32.5t-2 -32.5q0 -88 21 -235v-3q35 113 71 207l66 176q21 54 66 54q42 0 52 -49l29 -147q10 -67 27 -176q12 -64 18 -80q22 39 41 113
q11 44 23 101l17 89q3 36 32.5 61t65.5 25q54 0 54 -54q0 -9 -4 -27q-5 -30 -21 -98q-39 -133 -56 -180q-34 -100 -75 -172q-58 -101 -105 -101q-45 0 -68 94q-5 46 -42 280q-4 35 -9 70q-1 0 -7 -23q-6 -27 -10 -37q-25 -74 -77 -220q-35 -93 -59 -136q-14 -25 -24 -27z
" />
    <glyph glyph-name="X" unicode="X" horiz-adv-x="646" 
d="M462 684q34 22 68 22q24 0 35 -14q17 -18 17 -38q0 -23 -26 -55q-110 -91 -157 -178q-6 -11 -6 -23q0 -18 16 -40q74 -102 146 -171q27 -26 27 -55q0 -22 -14 -47q-20 -11 -41 -11q-35 0 -71 26q-49 51 -146 155q-24 27 -31 27t-28 -33q-47 -70 -137 -214
q-21 -36 -72 -36q-22 0 -39.5 13.5t-17.5 35.5q0 16 12 38q83 150 146 248q26 40 26 66q0 14 -6 26q-35 45 -68 83l-61 69q-35 39 -35 61q0 15 12.5 29t26.5 18.5t28 4.5q44 0 69 -29q48 -57 126 -136q18 -18 21 -18q6 0 27 24q80 92 153 152z" />
    <glyph glyph-name="Y" unicode="Y" horiz-adv-x="641" 
d="M433 663q21 38 64 38q13 0 25 -6q55 -10 55 -52q0 -14 -8 -36q-97 -132 -147 -231q-81 -160 -121 -315q-28 -64 -120 -60q-34 1 -34 26q0 15 13 56.5t40 122.5q6 17 6 34q0 56 -64 136q-58 73 -136 201q-23 38 -23 58q0 25 29 39q19 20 48 20q41 0 62 -33
q42 -110 97 -173q52 -78 67 -78q12 0 26 27q10 19 69 129z" />
    <glyph glyph-name="Z" unicode="Z" horiz-adv-x="645" 
d="M465 698h11q59 0 75 -17q11 -12 11 -25q0 -25 -36 -71q-180 -231 -308 -425q-13 -20 -13 -30q0 -12 62 -16q21 -2 47 -2q63 0 168 11q37 4 64 -7q34 -14 36 -48q4 -66 -83 -66h-120l-118 -1q-101 0 -201 4q-19 -3 -40 7q-24 10 -29 28q-6 19 47 90q94 132 287 394
q12 16 12 27q0 15 -51 18q-18 1 -39 1q-69 0 -173 -12q-36 -4 -61 10q-29 17 -29 52q0 50 80 66q112 1 209 4q26 0 96 4q61 4 96 4z" />
    <glyph glyph-name="bracketleft" unicode="[" horiz-adv-x="368" 
d="M228 804q59 0 59 -63q0 -36 -44 -60q-38 -18 -75 -35q-31 -18 -38 -70q-1 -2 -4 -84q-2 -48 -2 -95q0 -109 11 -217q2 -17 9.5 -23t17.5 -6q21 0 60 21q15 8 30 8q23 0 37 -19t14 -43q0 -42 -35 -57q-77 -32 -157 -55q-17 -5 -33 -5q-58 0 -70 48q-18 73 -23 302l-2 65
v60q0 115 10 177q8 51 83 92q30 17 63 30q76 29 89 29z" />
    <glyph glyph-name="backslash" unicode="\" horiz-adv-x="458" 
d="M150 624q81 -248 224 -500q20 -35 20 -59q0 -38 -43 -61q-13 -7 -27 -7q-47 0 -73 60q-131 224 -257 535q-10 25 -10 46q0 40 46 58q16 6 31 6q63 0 89 -78z" />
    <glyph glyph-name="bracketright" unicode="]" horiz-adv-x="368" 
d="M64 -2q-54 0 -58 53q-1 5 -1 9q0 35 44 60q38 19 75 37q33 20 36 57q8 98 8 192q0 115 -11 215q-3 29 -26 29q-18 0 -62 -22q-14 -7 -28 -7q-24 0 -38 18.5t-14 43.5q0 41 35 57q60 27 156 55q17 5 34 5q58 0 70 -48q18 -72 23 -302l2 -64v-61q0 -114 -10 -176
q-8 -51 -82 -92q-31 -17 -63 -29q-77 -30 -90 -30z" />
    <glyph glyph-name="asciicircum" unicode="^" horiz-adv-x="407" 
d="M216 830q65 -60 125 -196q6 -20 -36 -26q-19 -3 -38 0q-25 5 -30 19q-16 51 -64 132q-10 17 -14 17q-9 0 -30 -49q-19 -44 -37 -101q-12 -27 -59 -27q-36 0 -36 34q0 38 41 107q28 49 60 84q19 21 55 26t63 -20z" />
    <glyph glyph-name="underscore" unicode="_" horiz-adv-x="731" 
d="M565 -2q73 0 78 -50q3 -27 -27 -43q-23 -12 -53 -14q-97 -6 -199 -6q-126 0 -282 12q-24 -2 -47 6q-29 11 -28 34q1 31 36 46q29 12 62 9q106 -9 198 -9q60 0 120 3q16 1 71 7q44 5 71 5z" />
    <glyph glyph-name="grave" unicode="`" horiz-adv-x="773" 
d="M398 2q145 21 234 142q26 35 42 78q12 32 20 71q-20 -38 -49 -65q-31 -30 -50 -30h-142zM37 206q11 -29 49 -78q54 -70 134 -103q22 -9 44 -15l63 223l89 1l68 243h195q-32 88 -100 148q-38 33 -75 47l-109 -410h-112l69 269l-154 -269h-64l-10 260zM471 254h12
q49 0 76 29q32 34 32 80q0 29 -18 49.5t-46 20.5h-8zM93 573q-9 -8 -22 -26q-44 -60 -55 -119q-6 -28 -9 -60t4 -78zM253 424l154 276l-32 2q-27 1 -50.5 -2.5t-71.5 -15.5v-260z" />
    <glyph glyph-name="a" unicode="a" horiz-adv-x="584" 
d="M273 688q19 13 41 13q49 0 75 -40q34 -52 43 -150q6 -64 21 -156q16 -107 32 -160q36 -121 36 -146q0 -16 -5 -20q-16 -30 -55 -30q-22 0 -43 11q-29 30 -55 106q-8 47 -41 47q-49 0 -202 -127q-38 -32 -77 -32q-59 0 -59 59q0 10 3 24l18 84q28 131 102 286
q84 176 166 231zM290 531q-22 12 -82 -123q-64 -143 -64 -185q0 -24 17 -24t60 27q110 54 104 136q-13 169 -35 169z" />
    <glyph glyph-name="b" unicode="b" horiz-adv-x="602" 
d="M308 700q103 0 155 -63q8 -21 8 -41q0 -39 -28 -84q-12 -19 -12 -35q0 -17 15 -29q49 -38 83 -119q10 -24 10 -46q0 -40 -25 -73q-65 -85 -186 -148q-124 -64 -228 -64q-39 0 -67 18q-33 21 -38 57q-10 69 -10 177q0 116 9 265q7 109 102 147t212 38zM166 586
q-22 -12 -31 -37q-16 -45 -16 -75q0 -46 44 -46q15 0 31 4q93 23 134 75q13 32 13 55q0 45 -64 45q-73 0 -111 -21zM283 368q-54 -5 -128 -46q-38 -30 -38 -103v-11q0 -41 13 -63q8 -16 27 -16q14 0 39 9q201 73 201 159q-19 79 -114 71z" />
    <glyph glyph-name="c" unicode="c" horiz-adv-x="668" 
d="M294 677q72 23 126 23q160 0 185 -171q1 -29 -19 -47.5t-49 -18.5q-46 0 -69 44q-26 88 -68 88q-15 0 -35 -9q-157 -102 -224 -307q-10 -30 -10 -60q0 -64 42 -89q54 -32 100 -32q71 0 142 79q46 71 100 71q19 0 33.5 -10.5t14.5 -29.5q0 -6 -2 -12q-15 -142 -210 -188
q-58 -8 -107 -8q-142 0 -208 70q-36 38 -49 90q-2 16 -2 35q0 84 52 192q44 94 109.5 170.5t147.5 119.5z" />
    <glyph glyph-name="d" unicode="d" horiz-adv-x="609" 
d="M243 699q238 0 302 -194q3 -9 3 -24q0 -45 -38 -108q-108 -180 -261 -317q-61 -55 -121 -57q-36 -1 -66 9q-41 13 -45 43q-32 265 -32 489q0 77 37 108q22 18 68 32q64 19 153 19zM201 585q-69 -14 -78 -62q8 -131 11 -172q7 -97 17 -171q5 -36 12 -36t36 26
q89 79 184 249q24 43 24 74q0 26 -19 43q-63 56 -130 56q-23 0 -57 -7z" />
    <glyph glyph-name="e" unicode="e" horiz-adv-x="527" 
d="M312 695q26 6 46 6q63 0 63 -43q0 -66 -89 -70q-161 -27 -191 -69q-16 -38 -16 -65q0 -36 22 -50t173 32q13 4 29 4q52 0 57 -47q6 -51 -65 -70q-71 -5 -112 -14q-79 -17 -93 -51q-11 -26 -11 -50q0 -42 37 -70q1 -2 8 -2q38 0 198 68q14 6 32 6q41 0 56 -29q9 -18 9 -33
q0 -34 -53 -54q-116 -43 -294 -88q-22 -9 -42 -9q-53 0 -67 43q-18 58 -23 254l-2 54v51q0 96 10 147q8 43 69 69q109 47 249 80z" />
    <glyph glyph-name="f" unicode="f" horiz-adv-x="474" 
d="M311 696q18 3 32 3q27 0 47 -10q27 -12 22 -37q-5 -28 -35 -45q-26 -16 -57 -18q-88 -7 -161 -34q-43 -26 -43 -94q0 -54 32 -52q99 5 165 29q11 4 26 4q22 0 40 -12t20 -33q3 -29 -19 -47t-52 -21q-90 -10 -183 -37q-23 -7 -23 -68q0 -40 16 -146q8 -52 -54 -73
q-12 -4 -25 -4q-43 0 -54 40q-19 72 -19 228v23q0 14 -1 43t-1 43q0 78 10 176q16 49 68 72q102 45 249 70z" />
    <glyph glyph-name="g" unicode="g" horiz-adv-x="746" 
d="M295 677q72 23 126 23q159 0 184 -171q0 -29 -19.5 -51t-48.5 -22q-38 0 -61 42q-16 86 -62 86q-31 0 -87 -32q-113 -64 -182 -242q-16 -41 -16 -75q0 -66 56 -107q59 -24 103 -24q73 0 123 71q16 31 14 42t-14 10q-26 -3 -42 -3q-79 0 -75 42q5 52 91 54q104 2 196 26
q16 4 32 4q69 0 69 -61q0 -38 -69 -41q-18 -1 -49 -61q-34 -67 -88 -115q-60 -54 -127 -65q-47 -8 -96 -8q-151 0 -216 70q-51 54 -51 110v18q0 84 51 191q44 93 109.5 169.5t148.5 119.5z" />
    <glyph glyph-name="h" unicode="h" horiz-adv-x="496" 
d="M292 611q-2 75 56 88q13 3 20 3q56 0 58 -77q1 -30 5 -116q4 -74 4 -117v-25q0 4 -6 -269q-2 -70 -68 -70q-56 0 -56 63q0 76 -2 148q4 23 4 37t-5 17q-2 0 -59 -16q-120 -34 -120 -89q0 -7 1 -21v-22q0 -150 -71 -147q-31 1 -49.5 21.5t-17.5 51.5q5 147 5 238
q0 133 -6 256q-3 67 67 74q31 3 50 -15t19 -49v-28q0 -23 -1 -68.5t-1 -68.5q0 -53 34 -53q20 0 46 14l48 26q49 28 48 83z" />
    <glyph glyph-name="i" unicode="i" horiz-adv-x="464" 
d="M286 696q24 9 47 9q54 0 54 -46q0 -38 -37 -52l-73 -28q-26 -10 -23 -51q11 -138 11 -317q0 -19 6 -57l61 3q26 1 46 -11t20 -37q0 -24 -17.5 -37t-42.5 -14q-116 -4 -248 -53q-19 -7 -34 -7q-41 0 -41 38q0 40 43 61l65 32q12 3 15 53q3 43 3 93q0 96 -9 215
q-5 63 -22 66l-67 10q-54 -2 -54 41q0 26 23 40q19 12 46 11q21 -1 27 -1q95 0 201 39z" />
    <glyph glyph-name="j" unicode="j" horiz-adv-x="675" 
d="M520 694q14 5 32 5q50 0 59 -35q7 -45 -46 -68l-23 -10q-9 -8 -9 -40q0 -51 7 -157.5t6 -161.5q-1 -106 -54.5 -166t-148.5 -60q-104 0 -197 55q-66 39 -119 98q-42 38 -42 63q0 18 20 35q24 12 53 12q52 0 84 -35q110 -119 187 -119t77 147q0 135 -10 222q-8 66 -33 64
l-49 4q-9 -1 -17 -1q-55 0 -57 47q-2 44 66 52h13q8 -1 12 -1q105 0 189 50z" />
    <glyph glyph-name="k" unicode="k" horiz-adv-x="578" 
d="M316 658q31 42 79 42q28 0 49.5 -16.5t21.5 -43.5q0 -24 -22 -52q-95 -95 -183 -219q-7 -10 -4 -27q2 -18 14 -28q97 -81 183 -119q55 -24 55 -63q0 -27 -26 -43q-22 -13 -51 -13q-20 0 -42 6q-130 68 -231 157q-23 5 -23 -74q0 -47 6 -92q-2 -32 -22 -53t-52 -21
t-50 21.5t-18 53.5v96q0 270 -16 403q-2 65 62 86q12 4 27 4q62 0 64 -71l4 -123q1 -28 4 -28t25 25q33 37 75 94q36 49 71 98z" />
    <glyph glyph-name="l" unicode="l" horiz-adv-x="514" 
d="M66 700q41 1 60 -19t13 -61q-15 -108 -15 -248q0 -105 4 -189q1 -15 1 -30q4 -18 19 -13q101 31 169 68q31 17 64 17q49 0 63 -30q6 -13 6 -25q0 -39 -56 -67q-105 -53 -307 -103q-9 -2 -17 -2q-51 0 -73 73q-15 163 -15 314q0 132 11 234q9 79 73 81z" />
    <glyph glyph-name="m" unicode="m" horiz-adv-x="771" 
d="M542 696q7 1 15 1q50 0 64 -45q25 -81 66 -306q21 -115 21 -199v-17q0 -9 -1 -18q2 -25 -26.5 -41.5t-54.5 -16.5q-63 0 -63 71q0 12 2.5 37t2.5 39q0 88 -21 235v3q-43 -140 -137 -383q-21 -54 -66 -54q-42 0 -52 49l-29 147q-10 68 -27 178q-12 64 -18 79
q-20 -30 -41 -114q-12 -48 -22 -101l-18 -89q-3 -35 -31.5 -59.5t-64.5 -24.5q-55 0 -55 54q0 11 3 25q7 62 60 226q45 140 92 224q57 101 105 101q47 0 68 -94q14 -93 42 -280q10 -69 8 -69q2 0 8 22q7 30 10 37l48 135q18 55 60 163q12 29 22 47q18 35 30 38z" />
    <glyph glyph-name="n" unicode="n" horiz-adv-x="557" 
d="M348 612q-3 74 65 88q72 15 73 -75q0 -36 4 -117q4 -75 4 -116v-25q0 -49 -3 -135q-3 -95 -3 -134q0 -32 -21 -51.5t-54 -19.5q-41 0 -61 29q-45 65 -225 360q-3 3 -6 3q1 -3 3 -54q6 -127 6 -195q0 -79 -4 -111q-8 -62 -74 -60q-68 2 -66 72q3 118 3 262q0 111 -4 232
q-2 72 70 75q23 1 49.5 -9.5t37.5 -28.5q71 -114 215 -339q-2 9 -2 28q-1 71 -3 161z" />
    <glyph glyph-name="o" unicode="o" horiz-adv-x="719" 
d="M396 700q115 0 185 -79q74 -84 74 -200q0 -87 -41 -192q-64 -104 -152 -162q-95 -63 -200 -67q-61 -2 -124 28q-56 27 -93 79q-59 101 -59 186v11q0 6 1 11q10 107 33 156q31 65 95 127q38 38 95 62q96 40 186 40zM361 576q-80 -6 -156 -86q-67 -71 -73 -152
q-7 -95 47 -159q39 -33 93 -33q90 0 142 45q36 31 73 97q35 62 35 121q0 60 -39 112q-42 57 -100 57q-10 0 -22 -2z" />
    <glyph glyph-name="p" unicode="p" horiz-adv-x="571" 
d="M136 683q88 18 152 18q223 0 223 -206q0 -42 -6 -63q-7 -28 -30 -56q-61 -75 -184 -131q-58 -26 -119 -41q-32 -8 -34 -65l-3 -79q-1 -27 -22 -41.5t-49 -14.5q-36 0 -57.5 21.5t-18.5 57.5q7 78 7 228v113q0 53 -2 103t11.5 83t55.5 51q23 10 76 22zM337 593
q-18 13 -46 13q-14 0 -33 -3q-52 -8 -76 -22q-35 -20 -41 -63q-7 -53 -7 -83q0 -67 16 -87q9 -12 30 -12q22 0 69 16q128 44 128 139q0 26 -7 49q-11 36 -33 53z" />
    <glyph glyph-name="q" unicode="q" horiz-adv-x="719" 
d="M394 698q120 0 186 -78q74 -88 74 -198q0 -109 -73 -240q-12 -22 -12 -39q0 -15 12 -27q31 -30 31 -50q0 -16 -18 -35q-23 -24 -48 -24q-20 0 -38 13t-34 26q-8 6 -12 3q-64 -50 -171 -50h-16q-8 0 -16 1q-139 2 -214 107q-59 101 -59 186v11q0 6 1 11q10 106 33 155
q32 66 95 127q50 48 130 76q74 25 149 25zM194 494q-68 -78 -74 -168q-7 -113 43 -169q38 -42 90 -42q37 0 94 22q12 5 12 17q0 9 -11.5 25.5t-11.5 34.5q0 26 19 46.5t45 20.5q32 0 58 -32q5 -3 9 -3q7 0 28 43q25 52 25 103q0 56 -30 118q-51 81 -114 81q-97 0 -182 -97z
" />
    <glyph glyph-name="r" unicode="r" horiz-adv-x="641" 
d="M107 680q126 21 218 21q228 0 228 -125q0 -44 -27 -99q-38 -78 -116 -145q-31 -27 -31 -48q0 -6 4 -9q115 -105 178 -156q13 -10 13 -33q0 -27 -18 -46.5t-45 -19.5q-24 0 -53 17q-87 52 -116 71q-65 42 -107 82t-52 46q-27 14 -42 -52q-7 -32 -6 -75q5 -18 5 -38
q0 -63 -62 -70q-81 -9 -86 103l-5 115q-2 55 -2 107q0 141 15 236q14 90 107 118zM188 588q-52 -11 -50 -121q-2 -14 -2 -28q0 -72 64 -72t114 40q102 82 102 139q0 32 -33 50q-46 8 -87 8q-57 0 -108 -16z" />
    <glyph glyph-name="s" unicode="s" horiz-adv-x="596" 
d="M378 700q74 0 76 -59q2 -49 -89 -56q-106 -8 -208 -103q-24 -33 -24 -55q0 -20 19 -25h14q8 -1 13 -1q44 0 94 5l102 9q10 1 14 1h14q130 0 130 -107q0 -77 -55 -153q-35 -49 -116 -108q-68 -50 -134 -50q-78 0 -150 58q-36 29 -36 54q0 26 24.5 45.5t50.5 19.5
q29 0 51 -20q34 -32 68 -32q36 0 91 37q75 91 61 117q-16 29 -77 29q-37 0 -86 -9q-27 -5 -51 -5q-48 0 -109 22q-81 29 -81 88q0 18 6 33q46 115 155 190t233 75z" />
    <glyph glyph-name="t" unicode="t" horiz-adv-x="726" 
d="M539 695q23 6 39 6q30 0 53 -15q27 -17 27 -45q0 -45 -64 -66q-84 -15 -141 -33q-53 -17 -57 -77q-11 -153 -19 -409q-8 -59 -63 -59q-35 0 -62.5 24.5t-25.5 59.5l13 183q4 84 4 154v21q2 18 2 30q0 38 -24 36q-100 -8 -158 -20q-14 -3 -26 -3q-47 0 -47 40
q0 31 24.5 57t55.5 35q115 13 253 35q108 18 216 46z" />
    <glyph glyph-name="u" unicode="u" horiz-adv-x="709" 
d="M581 701q64 0 64 -63q0 -13 -2 -25q-18 -109 -18 -251q0 -131 15 -274q1 -10 1 -11v-11q0 -58 -52 -66q-8 -1 -15 -1q-66 0 -70 93q-5 14 -9 14q-5 0 -30 -14q-168 -72 -281 -72q-197 0 -199 209q-2 192 53 359q26 78 86 78q15 0 26 -3q57 -15 53 -81q-22 -66 -43 -158
q-25 -108 -25 -158v-15q0 -105 64 -105q7 0 23 3q68 9 107 20q52 14 128 47q20 9 20 50v11q0 5 -1 11v44q0 170 11 276q-1 38 16 62q23 31 78 31z" />
    <glyph glyph-name="v" unicode="v" horiz-adv-x="621" 
d="M144 62q-83 160 -159 564q-3 35 22 55q22 17 58 17q30 0 51.5 -16t22.5 -45q5 -94 18 -173q8 -50 38 -163q12 -48 34 -119q14 -35 19 -35q10 0 65 139q26 67 47 135q19 65 45 191q6 31 38 50q27 16 61 16q55 -11 55 -67q0 -14 -2 -22q-81 -326 -223 -529q-39 -56 -96 -62
q-58 -6 -94 64z" />
    <glyph glyph-name="w" unicode="w" horiz-adv-x="772" 
d="M152 4q-60 -15 -79 44q-24 75 -66 306q-21 115 -21 199v18q0 8 1 17q-2 25 28 43q27 15 53 15q62 0 62 -72v-10q0 -11 -2 -32.5t-2 -32.5q0 -88 21 -235v-3q35 113 71 207l66 176q21 54 66 54q42 0 52 -49l29 -147q10 -67 27 -176q12 -64 18 -80q22 39 41 113
q11 44 23 101l17 89q3 36 32.5 61t65.5 25q54 0 54 -54q0 -9 -4 -27q-5 -30 -21 -98q-39 -133 -56 -180q-34 -100 -75 -172q-58 -101 -105 -101q-45 0 -68 94q-5 46 -42 280q-4 35 -9 70q-1 0 -7 -23q-6 -27 -10 -37q-25 -74 -77 -220q-35 -93 -59 -136q-14 -25 -24 -27z
" />
    <glyph glyph-name="x" unicode="x" horiz-adv-x="646" 
d="M462 684q34 22 68 22q24 0 35 -14q17 -18 17 -38q0 -23 -26 -55q-110 -91 -157 -178q-6 -11 -6 -23q0 -18 16 -40q74 -102 146 -171q27 -26 27 -55q0 -22 -14 -47q-20 -11 -41 -11q-35 0 -71 26q-49 51 -146 155q-24 27 -31 27t-28 -33q-47 -70 -137 -214
q-21 -36 -72 -36q-22 0 -39.5 13.5t-17.5 35.5q0 16 12 38q83 150 146 248q26 40 26 66q0 14 -6 26q-35 45 -68 83l-61 69q-35 39 -35 61q0 15 12.5 29t26.5 18.5t28 4.5q44 0 69 -29q48 -57 126 -136q18 -18 21 -18q6 0 27 24q80 92 153 152z" />
    <glyph glyph-name="y" unicode="y" horiz-adv-x="641" 
d="M433 663q21 38 64 38q13 0 25 -6q55 -10 55 -52q0 -14 -8 -36q-97 -132 -147 -231q-81 -160 -121 -315q-28 -64 -120 -60q-34 1 -34 26q0 15 13 56.5t40 122.5q6 17 6 34q0 56 -64 136q-58 73 -136 201q-23 38 -23 58q0 25 29 39q19 20 48 20q41 0 62 -33
q42 -110 97 -173q52 -78 67 -78q12 0 26 27q10 19 69 129z" />
    <glyph glyph-name="z" unicode="z" horiz-adv-x="645" 
d="M465 698h11q59 0 75 -17q11 -12 11 -25q0 -25 -36 -71q-180 -231 -308 -425q-13 -20 -13 -30q0 -12 62 -16q21 -2 47 -2q63 0 168 11q37 4 64 -7q34 -14 36 -48q4 -66 -83 -66h-120l-118 -1q-101 0 -201 4q-19 -3 -40 7q-24 10 -29 28q-6 19 47 90q94 132 287 394
q12 16 12 27q0 15 -51 18q-18 1 -39 1q-69 0 -173 -12q-36 -4 -61 10q-29 17 -29 52q0 50 80 66q112 1 209 4q26 0 96 4q61 4 96 4z" />
    <glyph glyph-name="braceleft" unicode="{" 
 />
    <glyph glyph-name="bar" unicode="|" horiz-adv-x="225" 
d="M161 688q-14 -142 -14 -320q0 -158 8 -288q3 -44 -29 -64q-26 -18 -72 -17q-61 18 -66 95q-7 110 -7 252q0 200 18 373q25 94 91 83q75 -13 75 -79q0 -18 -4 -35z" />
    <glyph glyph-name="braceright" unicode="}" 
 />
    <glyph glyph-name="asciitilde" unicode="~" 
 />
    <glyph glyph-name="dieresis" unicode="&#xa8;" horiz-adv-x="527" 
d="M125 454q0 -35 21 -49t173 32q13 4 29 4q53 0 58 -47q6 -51 -65 -70q-72 -6 -112 -15q-79 -17 -94 -50q-11 -24 -11 -50q0 -43 37 -71q1 -2 8 -2q38 0 198 68q14 6 32 6q43 0 56 -28q9 -19 9 -34q0 -34 -52 -54q-109 -41 -296 -88q-22 -9 -42 -9q-53 0 -66 44
q-18 62 -23 253l-2 55v51q0 96 10 147q9 44 69 69q121 51 249 80q57 13 71 7q39 -18 39 -44q0 -68 -89 -70q-160 -25 -192 -69q-15 -36 -15 -66zM75 667q-22 0 -41 12q-22 15 -22 36q0 22 20 36t43 14q22 0 42.5 -14.5t20.5 -35.5q0 -20 -21 -34t-42 -14zM261 715
q-22 0 -43 14t-21 35t21 35t43 14q21 0 42 -14.5t21 -34.5t-21 -34.5t-42 -14.5z" />
    <glyph glyph-name="copyright" unicode="&#xa9;" 
 />
    <glyph glyph-name="guillemotleft" unicode="&#xab;" horiz-adv-x="579" 
d="M229 384q6 35 86 72q65 30 143 45q46 2 46 -26q0 -29 -34 -36q-55 -11 -112 -33q-10 -4 -19 -7q-10 -6 -11 -16q-2 -13 56 -39q47 -22 86 -32t30 -42q-5 -19 -37 -19q-6 0 -14 1q-73 26 -123 49q-103 46 -97 83zM88 452q54 26 124 49q18 6 31 0q15 -7 15 -26
q0 -28 -27 -35q-70 -19 -121 -50q-17 -10 -17 -18q0 -11 39 -23q25 -7 50 -13q88 -26 88 -60q0 -27 -35 -27q-39 0 -124 37q-60 26 -90 47t-30 39q0 33 97 80z" />
    <glyph glyph-name="registered" unicode="&#xae;" 
 />
    <glyph glyph-name="cedilla" unicode="&#xb8;" horiz-adv-x="527" 
d="M125 454q0 -35 21 -49t173 32q13 4 29 4q53 0 58 -47q6 -51 -65 -70q-72 -6 -112 -15q-79 -17 -94 -50q-11 -24 -11 -50q0 -43 37 -71q1 -2 8 -2q38 0 198 68q14 6 32 6q43 0 56 -28q9 -19 9 -34q0 -34 -52 -54q-109 -41 -296 -88q-22 -9 -42 -9q-53 0 -66 44
q-18 62 -23 253l-2 55v51q0 96 10 147q9 44 69 69q121 51 249 80q57 13 71 7q39 -18 39 -44q0 -68 -89 -70q-160 -25 -192 -69q-15 -36 -15 -66zM75 667q-22 0 -41 12q-22 15 -22 36q0 22 20 36t43 14q22 0 42.5 -14.5t20.5 -35.5q0 -20 -21 -34t-42 -14zM261 715
q-22 0 -43 14t-21 35t21 35t43 14q21 0 42 -14.5t21 -34.5t-21 -34.5t-42 -14.5z" />
    <glyph glyph-name="guillemotright" unicode="&#xbb;" horiz-adv-x="580" 
d="M244 342q-42 -36 -193 -90q-8 -1 -14 -1q-32 0 -37 19q-9 32 30 42q73 19 126 53q17 11 16 18q-2 12 -30 23q-57 22 -112 33q-34 7 -34 36q0 28 46 26q129 -24 202 -79q24 -18 27 -38q3 -17 -27 -42zM509 372q0 -18 -30 -39t-89 -47q-86 -37 -125 -37q-35 0 -35 27
q0 34 88 60q25 6 50 13q39 12 39 23q0 13 -55 39q-37 17 -83 29q-27 7 -27 35q0 19 15 26q13 6 31 0q70 -23 125 -49q96 -47 96 -80z" />
    <glyph glyph-name="Agrave" unicode="&#xc0;" horiz-adv-x="584" 
d="M273 688q19 13 41 13q49 0 75 -40q34 -52 43 -150q6 -64 21 -156q16 -107 32 -160q36 -121 36 -146q0 -16 -5 -20q-16 -30 -55 -30q-22 0 -43 11q-29 30 -55 106q-8 47 -41 47q-49 0 -202 -127q-38 -32 -77 -32q-59 0 -59 59q0 10 3 24l18 84q28 131 102 286
q84 176 166 231zM290 531q-22 12 -82 -123q-64 -143 -64 -185q0 -24 17 -24t60 27q110 54 104 136q-13 169 -35 169z" />
    <glyph glyph-name="Aacute" unicode="&#xc1;" horiz-adv-x="574" 
d="M322 693q26 5 45 5q28 0 51 -10q31 -13 31 -37q0 -41 -77 -56l-178 -34q-76 -14 -77 -85q-1 -65 20 -65q10 0 31 10q73 35 149 35q74 0 125 -35q56 -38 66 -107q3 -20 3 -36q0 -58 -38 -105q-58 -72 -172 -123.5t-208 -51.5q-37 0 -64 17q-31 20 -35 55q-10 92 -10 230
q0 80 3 194q3 103 74 130q99 38 261 69zM283 355q-47 -14 -63 -19q-40 -14 -58 -26q-46 -30 -46 -92v-20q0 -77 45 -77q14 0 43 8q74 20 111 49q50 38 58 103q1 38 -8 55q-12 23 -46 23q-16 0 -36 -4z" />
    <glyph glyph-name="Acircumflex" unicode="&#xc2;" horiz-adv-x="602" 
d="M308 700q103 0 155 -63q8 -21 8 -41q0 -39 -28 -84q-12 -19 -12 -35q0 -17 15 -29q49 -38 83 -119q10 -24 10 -46q0 -40 -25 -73q-65 -85 -186 -148q-124 -64 -228 -64q-39 0 -67 18q-33 21 -38 57q-10 69 -10 177q0 116 9 265q7 109 102 147t212 38zM166 586
q-22 -12 -31 -37q-16 -45 -16 -75q0 -46 44 -46q15 0 31 4q93 23 134 75q13 32 13 55q0 45 -64 45q-73 0 -111 -21zM283 368q-54 -5 -128 -46q-38 -30 -38 -103v-11q0 -41 13 -63q8 -16 27 -16q14 0 39 9q201 73 201 159q-19 79 -114 71z" />
    <glyph glyph-name="Atilde" unicode="&#xc3;" horiz-adv-x="516" 
d="M354 700q8 1 16 1q29 0 52 -13q27 -15 27 -42q0 -20 -18 -37q-14 -13 -57 -22l-204 -45q-37 -8 -41 -53q-8 -91 -8 -167q0 -42 6 -105q10 -99 10 -104q1 -14 1 -25q0 -80 -66 -89q-65 -9 -78 76q-11 71 -11 178q0 103 10 243q-4 103 66 130q41 16 118 35q96 24 177 39z
" />
    <glyph glyph-name="Adieresis" unicode="&#xc4;" horiz-adv-x="891" 
d="M411 643q16 21 46.5 38.5t60.5 17.5q68 0 89 -92l42 -182q21 -92 35 -176q12 -73 90 -105q63 -25 57 -65q-8 -50 -49 -120q-50 -84 -93 -76q-35 7 -35 43q0 13 5 33q8 31 9 33q3 18 3 33q0 30 -14 41q-13 24 -80 40q-88 21 -170 21q-72 0 -155 -16q-64 -12 -101 -48
q-7 -7 -7 -25q0 -31 19 -79l4 -18q1 -7 1 -15q0 -29 -26 -45q-11 -7 -23 -7q-26 0 -66 56q-46 65 -62 131q-9 37 42 73q30 15 90 49q47 29 66 89q41 132 222 371zM347 320q-11 -24 -11 -47q0 -50 79 -50q14 0 32 2q60 -3 86 16t21 67q-9 91 -29 156q-17 51 -42 51
q-48 0 -136 -195z" />
    <glyph glyph-name="Aring" unicode="&#xc5;" horiz-adv-x="527" 
d="M312 695q26 6 46 6q63 0 63 -43q0 -66 -89 -70q-161 -27 -191 -69q-16 -38 -16 -65q0 -36 22 -50t173 32q13 4 29 4q52 0 57 -47q6 -51 -65 -70q-71 -5 -112 -14q-79 -17 -93 -51q-11 -26 -11 -50q0 -42 37 -70q1 -2 8 -2q38 0 198 68q14 6 32 6q41 0 56 -29q9 -18 9 -33
q0 -34 -53 -54q-116 -43 -294 -88q-22 -9 -42 -9q-53 0 -67 43q-18 58 -23 254l-2 54v51q0 96 10 147q8 43 69 69q109 47 249 80z" />
    <glyph glyph-name="AE" unicode="&#xc6;" horiz-adv-x="944" 
d="M515 482q109 69 193 173q31 38 76 38q23 0 42 -15q26 -21 26 -40q0 -20 -28.5 -50t-87.5 -88q-41 -38 -100 -85q-27 -21 -27 -41q0 -13 11 -22q122 -102 220 -160q37 -22 37 -49q0 -19 -15 -38.5t-49 -19.5q-33 0 -57 15q-113 69 -245 182q1 -2 -2 -21q-5 -29 -5 -58
q0 -75 14 -124q1 -6 1 -11q0 -41 -65 -57q-76 5 -80 64q-5 43 -12 128q-1 14 2 19l2 5l-3 -3q-3 -3 -12 -10q-101 -70 -198 -186q-39 -26 -73 -26q-19 0 -31 9q-26 24 -26 45q0 16 16 36q63 78 214 216q7 6 7 21q0 20 -10 26q-130 83 -234 172q-29 25 -29 42q0 13 28 43
q19 17 46 17q42 0 66 -30q88 -88 200 -141q8 -2 12 -2q9 0 10 14q-1 -10 -1 20v26q0 67 5 122q6 62 79 63q36 0 54 -16t12 -51q-7 -39 -7 -86q0 -8 1 -35q1 -21 1 -34q-1 -8 2 -8t20 11z" />
    <glyph glyph-name="Ccedilla" unicode="&#xc7;" horiz-adv-x="585" 
d="M273 686q34 15 73 15q74 0 109 -48q48 -66 48 -133q0 -68 -53 -142q-20 -20 -20 -37t20 -26q70 -49 70 -104q0 -61 -85 -131q-76 -62 -243 -82q-137 2 -183 60q-25 19 -25 35q0 20 42 40q33 16 64 16q50 0 89 -34q23 -12 49 -12q54 0 129 49q27 26 27 49q0 45 -89 84
q-39 25 -39 44q0 15 26 30q53 31 69 64q23 49 23 87q0 25 -11 46q-14 25 -37 25q-45 0 -156 -128q-27 -21 -53 -21q-36 0 -56 36q-5 8 -5 19q0 17 15 42q55 92 202 157z" />
    <glyph glyph-name="Egrave" unicode="&#xc8;" horiz-adv-x="557" 
d="M130 596q3 74 -65 78q-72 5 -73 -86q0 -36 -4 -117q-4 -76 -4 -117v-25q0 -49 3 -134q3 -95 3 -134q0 -33 21.5 -49t53.5 -11q41 6 61 38q49 77 225 394q3 3 6 4q-1 -3 -3 -55q-6 -128 -6 -196q0 -103 4 -135q8 -61 74 -49q68 12 66 82q-3 136 -3 286q0 112 4 233
q1 34 -17.5 51t-52.5 14q-22 -2 -49 -17.5t-38 -33.5q-70 -124 -215 -372q2 9 2 29q1 71 3 161z" />
    <glyph glyph-name="Eacute" unicode="&#xc9;" horiz-adv-x="556" 
d="M211 736q24 39 48 92q14 31 74 31q74 0 74 -33q0 -21 -43 -60q-25 -21 -74 -64q-37 -36 -72 -36q-22 0 -22 22q0 16 15 48zM129 596q3 74 -65 78q-72 5 -73 -86q0 -36 -4 -117q-4 -76 -4 -117v-25q0 -49 3 -134q3 -95 3 -134q0 -33 21.5 -49t53.5 -11q41 6 61 38
q49 77 225 394q3 3 6 4q-1 -3 -3 -55q-6 -128 -6 -196q0 -103 4 -135q8 -61 74 -49q68 12 66 82q-3 136 -3 286q0 112 4 233q1 34 -17.5 51t-52.5 14q-22 -2 -49 -17.5t-38 -33.5q-70 -124 -215 -372q2 9 2 29q1 71 3 161z" />
    <glyph glyph-name="Ecircumflex" unicode="&#xca;" horiz-adv-x="578" 
d="M316 658q31 42 79 42q28 0 49.5 -16.5t21.5 -43.5q0 -24 -22 -52q-95 -95 -183 -219q-7 -10 -4 -27q2 -18 14 -28q97 -81 183 -119q55 -24 55 -63q0 -27 -26 -43q-22 -13 -51 -13q-20 0 -42 6q-130 68 -231 157q-23 5 -23 -74q0 -47 6 -92q-2 -32 -22 -53t-52 -21
t-50 21.5t-18 53.5v96q0 270 -16 403q-2 65 62 86q12 4 27 4q62 0 64 -71l4 -123q1 -28 4 -28t25 25q33 37 75 94q36 49 71 98z" />
    <glyph glyph-name="Edieresis" unicode="&#xcb;" horiz-adv-x="621" 
d="M399 637q84 -161 159 -564q4 -56 -55 -69q-13 -3 -25 -3q-30 0 -50 15q-23 17 -24 46q-5 93 -18 173q-8 50 -38 163q-12 48 -33 120q-15 34 -20 34q-9 0 -66 -139q-47 -113 -91 -326q-7 -32 -35.5 -49t-63.5 -17q-55 11 -55 67q0 14 2 22q81 326 223 529q39 56 96 62
q58 6 94 -64z" />
    <glyph glyph-name="Igrave" unicode="&#xcc;" horiz-adv-x="771" 
d="M542 696q7 1 15 1q50 0 64 -45q25 -81 66 -306q21 -115 21 -199v-17q0 -9 -1 -18q2 -25 -26.5 -41.5t-54.5 -16.5q-63 0 -63 71q0 12 2.5 37t2.5 39q0 88 -21 235v3q-43 -140 -137 -383q-21 -54 -66 -54q-42 0 -52 49l-29 147q-10 68 -27 178q-12 64 -18 79
q-20 -30 -41 -114q-12 -48 -22 -101l-18 -89q-3 -35 -31.5 -59.5t-64.5 -24.5q-55 0 -55 54q0 11 3 25q7 62 60 226q45 140 92 224q57 101 105 101q47 0 68 -94q14 -93 42 -280q10 -69 8 -69q2 0 8 22q7 30 10 37l48 135q18 55 60 163q12 29 22 47q18 35 30 38z" />
    <glyph glyph-name="Iacute" unicode="&#xcd;" horiz-adv-x="496" 
d="M292 611q-2 75 56 88q13 3 20 3q56 0 58 -77q1 -30 5 -116q4 -74 4 -117v-25q0 4 -6 -269q-2 -70 -68 -70q-56 0 -56 63q0 76 -2 148q4 23 4 37t-5 17q-2 0 -59 -16q-120 -34 -120 -89q0 -7 1 -21v-22q0 -150 -71 -147q-31 1 -49.5 21.5t-17.5 51.5q5 147 5 238
q0 133 -6 256q-3 67 67 74q31 3 50 -15t19 -49v-28q0 -23 -1 -68.5t-1 -68.5q0 -53 34 -53q20 0 46 14l48 26q49 28 48 83z" />
    <glyph glyph-name="Icircumflex" unicode="&#xce;" horiz-adv-x="719" 
d="M396 700q115 0 185 -79q74 -84 74 -200q0 -87 -41 -192q-64 -104 -152 -162q-95 -63 -200 -67q-61 -2 -124 28q-56 27 -93 79q-59 101 -59 186v11q0 6 1 11q10 107 33 156q31 65 95 127q38 38 95 62q96 40 186 40zM361 576q-80 -6 -156 -86q-67 -71 -73 -152
q-7 -95 47 -159q39 -33 93 -33q90 0 142 45q36 31 73 97q35 62 35 121q0 60 -39 112q-42 57 -100 57q-10 0 -22 -2z" />
    <glyph glyph-name="Idieresis" unicode="&#xcf;" horiz-adv-x="513" 
d="M347 699q12 3 29 3q65 0 67 -74q1 -31 5 -116q4 -74 4 -117v-35q0 -74 -2 -142l-4 -133q-5 -23 -24.5 -37.5t-43.5 -14.5q-29 0 -47.5 17t-20.5 46q2 46 2 89v81q0 149 -6 209q-1 30 -7 70q-9 15 -30 13q-75 -9 -115 -25q-23 -9 -25 -68q-4 -121 -4 -226q0 -23 1 -82
q1 -51 1 -81q0 -31 -21.5 -52.5t-51.5 -21.5q-29 0 -46.5 20t-18.5 50q6 93 6 241q0 161 -11 265q2 58 57 64q144 17 306 57z" />
    <glyph glyph-name="Eth" unicode="&#xd0;" horiz-adv-x="571" 
d="M136 683q88 18 152 18q223 0 223 -206q0 -42 -6 -63q-7 -28 -30 -56q-61 -75 -184 -131q-58 -26 -119 -41q-32 -8 -34 -65l-3 -79q-1 -27 -22 -41.5t-49 -14.5q-36 0 -57.5 21.5t-18.5 57.5q7 78 7 228v113q0 53 -2 103t11.5 83t55.5 51q23 10 76 22zM337 593
q-18 13 -46 13q-14 0 -33 -3q-52 -8 -76 -22q-35 -20 -41 -63q-7 -53 -7 -83q0 -67 16 -87q9 -12 30 -12q22 0 69 16q128 44 128 139q0 26 -7 49q-11 36 -33 53z" />
    <glyph glyph-name="Ntilde" unicode="&#xd1;" horiz-adv-x="668" 
d="M294 677q72 23 126 23q160 0 185 -171q1 -29 -19 -47.5t-49 -18.5q-46 0 -69 44q-26 88 -68 88q-15 0 -35 -9q-157 -102 -224 -307q-10 -30 -10 -60q0 -64 42 -89q54 -32 100 -32q71 0 142 79q46 71 100 71q19 0 33.5 -10.5t14.5 -29.5q0 -6 -2 -12q-15 -142 -210 -188
q-58 -8 -107 -8q-142 0 -208 70q-36 38 -49 90q-2 16 -2 35q0 84 52 192q44 94 109.5 170.5t147.5 119.5z" />
    <glyph glyph-name="Ograve" unicode="&#xd2;" horiz-adv-x="726" 
d="M539 695q23 6 39 6q30 0 53 -15q27 -17 27 -45q0 -45 -64 -66q-84 -15 -141 -33q-53 -17 -57 -77q-11 -153 -19 -409q-8 -59 -63 -59q-35 0 -62.5 24.5t-25.5 59.5l13 183q4 84 4 154v21q2 18 2 30q0 38 -24 36q-100 -8 -158 -20q-14 -3 -26 -3q-47 0 -47 40
q0 31 24.5 57t55.5 35q115 13 253 35q108 18 216 46z" />
    <glyph glyph-name="Oacute" unicode="&#xd3;" horiz-adv-x="641" 
d="M433 663q21 38 64 38q13 0 25 -6q55 -10 55 -52q0 -14 -8 -36q-97 -132 -147 -231q-81 -160 -121 -315q-28 -64 -120 -60q-34 1 -34 26q0 15 13 56.5t40 122.5q6 17 6 34q0 56 -64 136q-58 73 -136 201q-23 38 -23 58q0 25 29 39q19 20 48 20q41 0 62 -33
q42 -110 97 -173q52 -78 67 -78q12 0 26 27q10 19 69 129z" />
    <glyph glyph-name="Ocircumflex" unicode="&#xd4;" horiz-adv-x="854" 
d="M386 666q105 35 176 35q91 0 150 -36q70 -42 77 -127q1 -12 1 -23q0 -148 -153 -238q-61 -36 -129 -52q-50 -12 -50 -52q0 -19 2 -57t2 -57q0 -24 -24 -41t-49 -16q-8 -1 -15 -1q-24 0 -40.5 14.5t-16.5 39.5l1 74q2 18 2 30q0 39 -22 35q-28 -5 -68 -5q-183 0 -236 153
q-8 35 -8 63q0 85 62 146q53 51 142 77q60 18 127 18q35 0 69 20zM587 596q-67 0 -125 -37q-17 -11 -17 -74q0 -24 3 -54q-1 -7 -1 -14v-14q0 -80 46 -72q72 13 111 48t60 96q4 20 4 39q0 82 -81 82zM282 531q-116 2 -170 -94q-7 -22 -7 -46q0 -55 41 -90q28 -12 62 -12
q38 0 94 18q16 5 16 79q0 99 -17 129q-9 16 -19 16z" />
    <glyph glyph-name="Otilde" unicode="&#xd5;" horiz-adv-x="646" 
d="M462 684q34 22 68 22q24 0 35 -14q17 -18 17 -38q0 -23 -26 -55q-110 -91 -157 -178q-6 -11 -6 -23q0 -18 16 -40q74 -102 146 -171q27 -26 27 -55q0 -22 -14 -47q-20 -11 -41 -11q-35 0 -71 26q-49 51 -146 155q-24 27 -31 27t-28 -33q-47 -70 -137 -214
q-21 -36 -72 -36q-22 0 -39.5 13.5t-17.5 35.5q0 16 12 38q83 150 146 248q26 40 26 66q0 14 -6 26q-35 45 -68 83l-61 69q-35 39 -35 61q0 15 12.5 29t26.5 18.5t28 4.5q44 0 69 -29q48 -57 126 -136q18 -18 21 -18q6 0 27 24q80 92 153 152z" />
    <glyph glyph-name="Odieresis" unicode="&#xd6;" horiz-adv-x="851" 
d="M559 697q12 3 22 3q68 0 70 -87q-17 -100 -17 -201q0 -98 17 -174q29 -52 85 -70q49 -16 49 -71q0 -52 -41 -137.5t-90 -85.5q-43 0 -43 53q0 17 6 50.5t6 49.5q0 54 -29 64q-37 12 -71 12q-46 0 -97 -23q-153 -69 -254 -69q-185 0 -187 212q-2 184 54 362q25 81 83 81
q14 0 29 -6q53 -22 53 -59q0 -18 -9 -41q-35 -90 -57 -241q-6 -41 -6 -74q0 -101 68 -101q13 0 31 4q135 30 218 85q31 11 27 95q-2 42 -2 83q0 72 7 195q5 86 78 91z" />
    <glyph glyph-name="multiply" unicode="&#xd7;" horiz-adv-x="610" 
d="M18 630q7 24 31.5 38.5t49.5 8.5q59 -14 59 -55q0 -16 -7 -33q-35 -87 -32 -185q2 -49 21 -48q61 2 199 56q18 7 27 27q6 14 7 40q13 243 116 218q59 -15 59 -59q0 -10 -5 -30q-38 -155 -38 -331q0 -101 11 -187q2 -16 2 -27q0 -29 -12.5 -41.5t-42.5 -17.5
q-10 -4 -25 -4q-59 0 -69 82q-10 89 -9 155q-3 41 -4 40q-202 -64 -258 -64q-89 0 -106 99q-8 47 -8 102q0 102 34 216z" />
    <glyph glyph-name="Oslash" unicode="&#xd8;" horiz-adv-x="912" 
d="M768 699q90 -11 77 -74q-26 -129 -26 -275q0 -23 8 -173q3 -48 -20 -77q-24 -32 -71 -32q-282 0 -630 -65q-37 -7 -62 11t-31 55q-27 181 -27 326q0 107 13 199q8 60 77 60q30 0 53 -14q29 -17 25 -45q-20 -153 -20 -260q0 -67 8 -147q4 -37 25 -43q51 6 152 28
q11 2 16 30q4 21 3 37q-10 142 -10 220q0 67 1 78q5 52 28 69t57 17q89 0 80 -71q-13 -101 -13 -197q0 -37 4 -105q3 -47 25 -57l-8 1q12 -1 24 -1h22q59 0 112 14q20 5 20 64q0 24 -2.5 71t-2.5 71q0 98 11 206q9 88 82 79z" />
    <glyph glyph-name="Ugrave" unicode="&#xd9;" horiz-adv-x="1001" 
d="M776 700q58 2 58 -50q0 -11 -4 -31q-22 -110 -22 -245q0 -69 6 -151q4 -58 64 -83q67 -28 57 -66q-28 -110 -92 -164q-25 -20 -54 -15q-14 11 -14 27q0 11 6 30.5t7 27.5q1 14 1 25q0 35 -12 45q-21 21 -42 21q-9 0 -26 -3q-298 -2 -614 -71q-80 -6 -89 72
q-19 160 -19 309q0 111 12 211q7 60 77 60q30 0 52 -14q26 -17 22 -45q-21 -152 -21 -279q0 -53 5 -128q3 -45 23 -42q37 6 80 16l67 15q22 5 19 65l-3 78q-2 38 -2 75q0 91 8 160q4 32 25 52.5t53 19.5q87 -2 77 -76q-13 -93 -13 -299q0 -56 17 -56h12q8 -1 12 -1
q70 0 143 21q18 10 18 59v13q0 7 -1 15v24q0 74 3 150l6 150q2 36 22.5 58t55.5 22q9 0 20 -2z" />
    <glyph glyph-name="Uacute" unicode="&#xda;" horiz-adv-x="798" 
d="M108 618q45 29 139 77q20 8 37 8q33 0 49 -24.5t12 -58.5q-8 -69 -8 -99q0 -37 10 -56q5 -10 18 -10q14 0 53 17q86 37 152 37q101 0 144 -80q20 -37 20 -74q0 -56 -45 -126q-63 -98 -157 -156q-88 -56 -212 -72q-12 -4 -30 -4q-37 0 -60.5 22.5t-28.5 59.5
q-11 89 -11 210q0 108 8 201q1 12 1 13v10q0 18 -8 18q-12 0 -68 -46q-31 -17 -65 -17q-24 0 -43 10q-25 12 -25 33q0 38 118 107zM524 392h-16q-127 0 -161 -93q-18 -49 -18 -90q0 -49 28 -76q13 -7 29 -7q61 0 158 114q48 56 48 96q0 56 -68 56z" />
    <glyph glyph-name="Ucircumflex" unicode="&#xdb;" horiz-adv-x="823" 
d="M3 617q5 39 30.5 62t63.5 19q66 -6 66 -55q0 -8 -3 -20q-17 -71 -17 -108q0 -14 2 -21q10 -34 31 -34q15 0 46 13q85 36 155 36q101 0 141 -79q19 -38 19 -73q0 -57 -45 -128q-61 -97 -158.5 -155.5t-214.5 -71.5q-91 -10 -115 81q-18 131 -18 265q0 148 17 269zM349 399
q-114 2 -175 -88q-37 -69 -37 -116q0 -43 28 -69q11 -6 23 -6q59 0 164 126q48 58 48 99q0 43 -51 54zM755 601q-14 -108 -14 -279q0 -137 8 -251q3 -40 -32 -58q-27 -15 -69 -13q-61 17 -66 83q-7 103 -7 220q0 174 18 324q23 80 90 73q75 -8 75 -71q0 -5 -3 -28z" />
    <glyph glyph-name="Udieresis" unicode="&#xdc;" horiz-adv-x="599" 
d="M2 617q6 39 30.5 62t62.5 19q66 -6 66 -55q0 -8 -3 -20q-16 -65 -16 -107q0 -15 2 -22q10 -34 31 -34q15 0 46 13q86 36 154 36q99 0 141 -79q19 -36 19 -73q0 -57 -44 -128q-60 -96 -158 -155t-216 -72q-90 -10 -114 81q-19 124 -19 265q0 142 18 269zM348 399
q-115 2 -176 -88q-36 -67 -36 -116q0 -44 27 -69q11 -6 23 -6q59 0 165 126q48 57 48 99q0 43 -51 54z" />
    <glyph glyph-name="Thorn" unicode="&#xde;" horiz-adv-x="961" 
d="M737 670q159 -61 159 -236q0 -114 -51 -211q-35 -66 -99 -125q-79 -74 -203 -74q-49 0 -103 14q-148 39 -174 174q-16 82 -41 78q-48 -8 -68 -22q-28 -20 -28 -61v-118q0 -9 1 -22q5 -66 -60 -68q-31 -1 -51 23q-19 21 -22 53q-11 138 -11 279q0 129 11 290q16 63 83 55
q60 -8 60 -50q0 -7 -1 -14q-15 -75 -15 -226q0 -23 1 -25q1 -3 11 0q37 10 105 32q40 13 84 119q80 151 277 151q65 0 135 -16zM487 528q-41 -37 -68.5 -106t-27.5 -126q0 -55 26 -101q49 -48 111 -48q39 0 93 20q131 79 131 232v12q0 6 -1 12q-12 150 -139 150
q-74 0 -125 -45z" />
    <glyph glyph-name="ch28" unicode="&#xdf;" horiz-adv-x="588" 
d="M397 696q13 4 36 4q73 0 86 -56q7 -67 7 -166q0 8 -1 -93l-1 -152q0 -68 -3 -151t-81 -81q-60 18 -60 104q0 103 -13 106q-18 4 -66 -40q-114 -104 -191 -144q-36 -18 -63 -18q-24 0 -38 16q-23 27 -23 41q0 11 14 27q82 50 150 110q10 9 10 21q0 18 -26 33
q-88 50 -102 98q-13 44 -13 83q0 216 378 258zM314 573q-71 -4 -144 -68q-21 -18 -21 -48t20 -59q36 -52 130 -65q11 -3 21 -3q62 0 65 157q0 10 1 21v12q0 57 -72 53z" />
    <glyph glyph-name="agrave" unicode="&#xe0;" horiz-adv-x="584" 
d="M273 688q19 13 41 13q49 0 75 -40q34 -52 43 -150q6 -64 21 -156q16 -107 32 -160q36 -121 36 -146q0 -16 -5 -20q-16 -30 -55 -30q-22 0 -43 11q-29 30 -55 106q-8 47 -41 47q-49 0 -202 -127q-38 -32 -77 -32q-59 0 -59 59q0 10 3 24l18 84q28 131 102 286
q84 176 166 231zM290 531q-22 12 -82 -123q-64 -143 -64 -185q0 -24 17 -24t60 27q110 54 104 136q-13 169 -35 169z" />
    <glyph glyph-name="aacute" unicode="&#xe1;" horiz-adv-x="574" 
d="M322 693q26 5 45 5q28 0 51 -10q31 -13 31 -37q0 -41 -77 -56l-178 -34q-76 -14 -77 -85q-1 -65 20 -65q10 0 31 10q73 35 149 35q74 0 125 -35q56 -38 66 -107q3 -20 3 -36q0 -58 -38 -105q-58 -72 -172 -123.5t-208 -51.5q-37 0 -64 17q-31 20 -35 55q-10 92 -10 230
q0 80 3 194q3 103 74 130q99 38 261 69zM283 355q-47 -14 -63 -19q-40 -14 -58 -26q-46 -30 -46 -92v-20q0 -77 45 -77q14 0 43 8q74 20 111 49q50 38 58 103q1 38 -8 55q-12 23 -46 23q-16 0 -36 -4z" />
    <glyph glyph-name="acircumflex" unicode="&#xe2;" horiz-adv-x="602" 
d="M308 700q103 0 155 -63q8 -21 8 -41q0 -39 -28 -84q-12 -19 -12 -35q0 -17 15 -29q49 -38 83 -119q10 -24 10 -46q0 -40 -25 -73q-65 -85 -186 -148q-124 -64 -228 -64q-39 0 -67 18q-33 21 -38 57q-10 69 -10 177q0 116 9 265q7 109 102 147t212 38zM166 586
q-22 -12 -31 -37q-16 -45 -16 -75q0 -46 44 -46q15 0 31 4q93 23 134 75q13 32 13 55q0 45 -64 45q-73 0 -111 -21zM283 368q-54 -5 -128 -46q-38 -30 -38 -103v-11q0 -41 13 -63q8 -16 27 -16q14 0 39 9q201 73 201 159q-19 79 -114 71z" />
    <glyph glyph-name="atilde" unicode="&#xe3;" horiz-adv-x="516" 
d="M354 700q8 1 16 1q29 0 52 -13q27 -15 27 -42q0 -20 -18 -37q-14 -13 -57 -22l-204 -45q-37 -8 -41 -53q-8 -91 -8 -167q0 -42 6 -105q10 -99 10 -104q1 -14 1 -25q0 -80 -66 -89q-65 -9 -78 76q-11 71 -11 178q0 103 10 243q-4 103 66 130q41 16 118 35q96 24 177 39z
" />
    <glyph glyph-name="adieresis" unicode="&#xe4;" horiz-adv-x="891" 
d="M411 643q16 21 46.5 38.5t60.5 17.5q68 0 89 -92l42 -182q21 -92 35 -176q12 -73 90 -105q63 -25 57 -65q-8 -50 -49 -120q-50 -84 -93 -76q-35 7 -35 43q0 13 5 33q8 31 9 33q3 18 3 33q0 30 -14 41q-13 24 -80 40q-88 21 -170 21q-72 0 -155 -16q-64 -12 -101 -48
q-7 -7 -7 -25q0 -31 19 -79l4 -18q1 -7 1 -15q0 -29 -26 -45q-11 -7 -23 -7q-26 0 -66 56q-46 65 -62 131q-9 37 42 73q30 15 90 49q47 29 66 89q41 132 222 371zM347 320q-11 -24 -11 -47q0 -50 79 -50q14 0 32 2q60 -3 86 16t21 67q-9 91 -29 156q-17 51 -42 51
q-48 0 -136 -195z" />
    <glyph glyph-name="aring" unicode="&#xe5;" horiz-adv-x="527" 
d="M312 695q26 6 46 6q63 0 63 -43q0 -66 -89 -70q-161 -27 -191 -69q-16 -38 -16 -65q0 -36 22 -50t173 32q13 4 29 4q52 0 57 -47q6 -51 -65 -70q-71 -5 -112 -14q-79 -17 -93 -51q-11 -26 -11 -50q0 -42 37 -70q1 -2 8 -2q38 0 198 68q14 6 32 6q41 0 56 -29q9 -18 9 -33
q0 -34 -53 -54q-116 -43 -294 -88q-22 -9 -42 -9q-53 0 -67 43q-18 58 -23 254l-2 54v51q0 96 10 147q8 43 69 69q109 47 249 80z" />
    <glyph glyph-name="ae" unicode="&#xe6;" horiz-adv-x="944" 
d="M515 482q109 69 193 173q31 38 76 38q23 0 42 -15q26 -21 26 -40q0 -20 -28.5 -50t-87.5 -88q-41 -38 -100 -85q-27 -21 -27 -41q0 -13 11 -22q122 -102 220 -160q37 -22 37 -49q0 -19 -15 -38.5t-49 -19.5q-33 0 -57 15q-113 69 -245 182q1 -2 -2 -21q-5 -29 -5 -58
q0 -75 14 -124q1 -6 1 -11q0 -41 -65 -57q-76 5 -80 64q-5 43 -12 128q-1 14 2 19l2 5l-3 -3q-3 -3 -12 -10q-101 -70 -198 -186q-39 -26 -73 -26q-19 0 -31 9q-26 24 -26 45q0 16 16 36q63 78 214 216q7 6 7 21q0 20 -10 26q-130 83 -234 172q-29 25 -29 42q0 13 28 43
q19 17 46 17q42 0 66 -30q88 -88 200 -141q8 -2 12 -2q9 0 10 14q-1 -10 -1 20v26q0 67 5 122q6 62 79 63q36 0 54 -16t12 -51q-7 -39 -7 -86q0 -8 1 -35q1 -21 1 -34q-1 -8 2 -8t20 11z" />
    <glyph glyph-name="ccedilla" unicode="&#xe7;" horiz-adv-x="585" 
d="M273 686q34 15 73 15q74 0 109 -48q48 -66 48 -133q0 -68 -53 -142q-20 -20 -20 -37t20 -26q70 -49 70 -104q0 -61 -85 -131q-76 -62 -243 -82q-137 2 -183 60q-25 19 -25 35q0 20 42 40q33 16 64 16q50 0 89 -34q23 -12 49 -12q54 0 129 49q27 26 27 49q0 45 -89 84
q-39 25 -39 44q0 15 26 30q53 31 69 64q23 49 23 87q0 25 -11 46q-14 25 -37 25q-45 0 -156 -128q-27 -21 -53 -21q-36 0 -56 36q-5 8 -5 19q0 17 15 42q55 92 202 157z" />
    <glyph glyph-name="egrave" unicode="&#xe8;" horiz-adv-x="709" 
d="M581 701q64 0 64 -63q0 -13 -2 -25q-18 -109 -18 -251q0 -131 15 -274q1 -10 1 -11v-11q0 -58 -52 -66q-8 -1 -15 -1q-66 0 -70 93q-5 14 -9 14q-5 0 -30 -14q-168 -72 -281 -72q-197 0 -199 209q-2 192 53 359q26 78 86 78q15 0 26 -3q57 -15 53 -81q-22 -66 -43 -158
q-25 -108 -25 -158v-15q0 -105 64 -105q7 0 23 3q68 9 107 20q52 14 128 47q20 9 20 50v11q0 5 -1 11v44q0 170 11 276q-1 38 16 62q23 31 78 31z" />
    <glyph glyph-name="eacute" unicode="&#xe9;" horiz-adv-x="709" 
d="M581 703q65 0 65 -64v-11q0 -6 -2 -13q-19 -107 -19 -251q0 -49 8.5 -145.5t8.5 -141.5v-11q0 -58 -52 -66q-8 -1 -15 -1q-66 0 -70 93q-5 15 -9 15q-5 0 -31 -15q-168 -72 -281 -72q-198 0 -200 209q-2 190 53 360q25 79 87 79q48 0 68 -32q12 -19 10 -53
q-46 -145 -67 -301q-1 -7 -1 -15v-14q0 -107 65 -107q7 0 23 3q68 9 107 20q57 15 128 47q20 9 20 50v11q0 6 -1 12v44q0 169 11 277q-1 37 17 61q23 32 77 32zM299 736q24 39 48 92q14 31 74 31q74 0 74 -33q0 -21 -43 -60q-25 -21 -74 -64q-37 -36 -72 -36q-22 0 -22 22
q0 16 15 48z" />
    <glyph glyph-name="ecircumflex" unicode="&#xea;" horiz-adv-x="578" 
d="M316 658q31 42 79 42q28 0 49.5 -16.5t21.5 -43.5q0 -24 -22 -52q-95 -95 -183 -219q-7 -10 -4 -27q2 -18 14 -28q97 -81 183 -119q55 -24 55 -63q0 -27 -26 -43q-22 -13 -51 -13q-20 0 -42 6q-130 68 -231 157q-23 5 -23 -74q0 -47 6 -92q-2 -32 -22 -53t-52 -21
t-50 21.5t-18 53.5v96q0 270 -16 403q-2 65 62 86q12 4 27 4q62 0 64 -71l4 -123q1 -28 4 -28t25 25q33 37 75 94q36 49 71 98z" />
    <glyph glyph-name="edieresis" unicode="&#xeb;" horiz-adv-x="621" 
d="M399 637q84 -161 159 -564q4 -56 -55 -69q-13 -3 -25 -3q-30 0 -50 15q-23 17 -24 46q-5 93 -18 173q-8 50 -38 163q-12 48 -33 120q-15 34 -20 34q-9 0 -66 -139q-47 -113 -91 -326q-7 -32 -35.5 -49t-63.5 -17q-55 11 -55 67q0 14 2 22q81 326 223 529q39 56 96 62
q58 6 94 -64z" />
    <glyph glyph-name="igrave" unicode="&#xec;" horiz-adv-x="771" 
d="M542 696q7 1 15 1q50 0 64 -45q25 -81 66 -306q21 -115 21 -199v-17q0 -9 -1 -18q2 -25 -26.5 -41.5t-54.5 -16.5q-63 0 -63 71q0 12 2.5 37t2.5 39q0 88 -21 235v3q-43 -140 -137 -383q-21 -54 -66 -54q-42 0 -52 49l-29 147q-10 68 -27 178q-12 64 -18 79
q-20 -30 -41 -114q-12 -48 -22 -101l-18 -89q-3 -35 -31.5 -59.5t-64.5 -24.5q-55 0 -55 54q0 11 3 25q7 62 60 226q45 140 92 224q57 101 105 101q47 0 68 -94q14 -93 42 -280q10 -69 8 -69q2 0 8 22q7 30 10 37l48 135q18 55 60 163q12 29 22 47q18 35 30 38z" />
    <glyph glyph-name="iacute" unicode="&#xed;" horiz-adv-x="496" 
d="M292 611q-2 75 56 88q13 3 20 3q56 0 58 -77q1 -30 5 -116q4 -74 4 -117v-25q0 4 -6 -269q-2 -70 -68 -70q-56 0 -56 63q0 76 -2 148q4 23 4 37t-5 17q-2 0 -59 -16q-120 -34 -120 -89q0 -7 1 -21v-22q0 -150 -71 -147q-31 1 -49.5 21.5t-17.5 51.5q5 147 5 238
q0 133 -6 256q-3 67 67 74q31 3 50 -15t19 -49v-28q0 -23 -1 -68.5t-1 -68.5q0 -53 34 -53q20 0 46 14l48 26q49 28 48 83z" />
    <glyph glyph-name="icircumflex" unicode="&#xee;" horiz-adv-x="719" 
d="M396 700q115 0 185 -79q74 -84 74 -200q0 -87 -41 -192q-64 -104 -152 -162q-95 -63 -200 -67q-61 -2 -124 28q-56 27 -93 79q-59 101 -59 186v11q0 6 1 11q10 107 33 156q31 65 95 127q38 38 95 62q96 40 186 40zM361 576q-80 -6 -156 -86q-67 -71 -73 -152
q-7 -95 47 -159q39 -33 93 -33q90 0 142 45q36 31 73 97q35 62 35 121q0 60 -39 112q-42 57 -100 57q-10 0 -22 -2z" />
    <glyph glyph-name="idieresis" unicode="&#xef;" horiz-adv-x="513" 
d="M347 699q12 3 29 3q65 0 67 -74q1 -31 5 -116q4 -74 4 -117v-35q0 -74 -2 -142l-4 -133q-5 -23 -24.5 -37.5t-43.5 -14.5q-29 0 -47.5 17t-20.5 46q2 46 2 89v81q0 149 -6 209q-1 30 -7 70q-9 15 -30 13q-75 -9 -115 -25q-23 -9 -25 -68q-4 -121 -4 -226q0 -23 1 -82
q1 -51 1 -81q0 -31 -21.5 -52.5t-51.5 -21.5q-29 0 -46.5 20t-18.5 50q6 93 6 241q0 161 -11 265q2 58 57 64q144 17 306 57z" />
    <glyph glyph-name="eth" unicode="&#xf0;" horiz-adv-x="571" 
d="M136 683q88 18 152 18q223 0 223 -206q0 -42 -6 -63q-7 -28 -30 -56q-61 -75 -184 -131q-58 -26 -119 -41q-32 -8 -34 -65l-3 -79q-1 -27 -22 -41.5t-49 -14.5q-36 0 -57.5 21.5t-18.5 57.5q7 78 7 228v113q0 53 -2 103t11.5 83t55.5 51q23 10 76 22zM337 593
q-18 13 -46 13q-14 0 -33 -3q-52 -8 -76 -22q-35 -20 -41 -63q-7 -53 -7 -83q0 -67 16 -87q9 -12 30 -12q22 0 69 16q128 44 128 139q0 26 -7 49q-11 36 -33 53z" />
    <glyph glyph-name="ntilde" unicode="&#xf1;" horiz-adv-x="668" 
d="M294 677q72 23 126 23q160 0 185 -171q1 -29 -19 -47.5t-49 -18.5q-46 0 -69 44q-26 88 -68 88q-15 0 -35 -9q-157 -102 -224 -307q-10 -30 -10 -60q0 -64 42 -89q54 -32 100 -32q71 0 142 79q46 71 100 71q19 0 33.5 -10.5t14.5 -29.5q0 -6 -2 -12q-15 -142 -210 -188
q-58 -8 -107 -8q-142 0 -208 70q-36 38 -49 90q-2 16 -2 35q0 84 52 192q44 94 109.5 170.5t147.5 119.5z" />
    <glyph glyph-name="ograve" unicode="&#xf2;" horiz-adv-x="726" 
d="M539 695q23 6 39 6q30 0 53 -15q27 -17 27 -45q0 -45 -64 -66q-84 -15 -141 -33q-53 -17 -57 -77q-11 -153 -19 -409q-8 -59 -63 -59q-35 0 -62.5 24.5t-25.5 59.5l13 183q4 84 4 154v21q2 18 2 30q0 38 -24 36q-100 -8 -158 -20q-14 -3 -26 -3q-47 0 -47 40
q0 31 24.5 57t55.5 35q115 13 253 35q108 18 216 46z" />
    <glyph glyph-name="oacute" unicode="&#xf3;" horiz-adv-x="641" 
d="M433 663q21 38 64 38q13 0 25 -6q55 -10 55 -52q0 -14 -8 -36q-97 -132 -147 -231q-81 -160 -121 -315q-28 -64 -120 -60q-34 1 -34 26q0 15 13 56.5t40 122.5q6 17 6 34q0 56 -64 136q-58 73 -136 201q-23 38 -23 58q0 25 29 39q19 20 48 20q41 0 62 -33
q42 -110 97 -173q52 -78 67 -78q12 0 26 27q10 19 69 129z" />
    <glyph glyph-name="ocircumflex" unicode="&#xf4;" horiz-adv-x="854" 
d="M386 666q105 35 176 35q91 0 150 -36q70 -42 77 -127q1 -12 1 -23q0 -148 -153 -238q-61 -36 -129 -52q-50 -12 -50 -52q0 -19 2 -57t2 -57q0 -24 -24 -41t-49 -16q-8 -1 -15 -1q-24 0 -40.5 14.5t-16.5 39.5l1 74q2 18 2 30q0 39 -22 35q-28 -5 -68 -5q-183 0 -236 153
q-8 35 -8 63q0 85 62 146q53 51 142 77q60 18 127 18q35 0 69 20zM587 596q-67 0 -125 -37q-17 -11 -17 -74q0 -24 3 -54q-1 -7 -1 -14v-14q0 -80 46 -72q72 13 111 48t60 96q4 20 4 39q0 82 -81 82zM282 531q-116 2 -170 -94q-7 -22 -7 -46q0 -55 41 -90q28 -12 62 -12
q38 0 94 18q16 5 16 79q0 99 -17 129q-9 16 -19 16z" />
    <glyph glyph-name="otilde" unicode="&#xf5;" horiz-adv-x="646" 
d="M462 684q34 22 68 22q24 0 35 -14q17 -18 17 -38q0 -23 -26 -55q-110 -91 -157 -178q-6 -11 -6 -23q0 -18 16 -40q74 -102 146 -171q27 -26 27 -55q0 -22 -14 -47q-20 -11 -41 -11q-35 0 -71 26q-49 51 -146 155q-24 27 -31 27t-28 -33q-47 -70 -137 -214
q-21 -36 -72 -36q-22 0 -39.5 13.5t-17.5 35.5q0 16 12 38q83 150 146 248q26 40 26 66q0 14 -6 26q-35 45 -68 83l-61 69q-35 39 -35 61q0 15 12.5 29t26.5 18.5t28 4.5q44 0 69 -29q48 -57 126 -136q18 -18 21 -18q6 0 27 24q80 92 153 152z" />
    <glyph glyph-name="odieresis" unicode="&#xf6;" horiz-adv-x="851" 
d="M559 697q12 3 22 3q68 0 70 -87q-17 -100 -17 -201q0 -98 17 -174q29 -52 85 -70q49 -16 49 -71q0 -52 -41 -137.5t-90 -85.5q-43 0 -43 53q0 17 6 50.5t6 49.5q0 54 -29 64q-37 12 -71 12q-46 0 -97 -23q-153 -69 -254 -69q-185 0 -187 212q-2 184 54 362q25 81 83 81
q14 0 29 -6q53 -22 53 -59q0 -18 -9 -41q-35 -90 -57 -241q-6 -41 -6 -74q0 -101 68 -101q13 0 31 4q135 30 218 85q31 11 27 95q-2 42 -2 83q0 72 7 195q5 86 78 91z" />
    <glyph glyph-name="divide" unicode="&#xf7;" horiz-adv-x="610" 
d="M18 630q7 24 31.5 38.5t49.5 8.5q59 -14 59 -55q0 -16 -7 -33q-35 -87 -32 -185q2 -49 21 -48q61 2 199 56q18 7 27 27q6 14 7 40q13 243 116 218q59 -15 59 -59q0 -10 -5 -30q-38 -155 -38 -331q0 -101 11 -187q2 -16 2 -27q0 -29 -12.5 -41.5t-42.5 -17.5
q-10 -4 -25 -4q-59 0 -69 82q-10 89 -9 155q-3 41 -4 40q-202 -64 -258 -64q-89 0 -106 99q-8 47 -8 102q0 102 34 216z" />
    <glyph glyph-name="oslash" unicode="&#xf8;" horiz-adv-x="912" 
d="M768 699q90 -11 77 -74q-26 -129 -26 -275q0 -23 8 -173q3 -48 -20 -77q-24 -32 -71 -32q-282 0 -630 -65q-37 -7 -62 11t-31 55q-27 181 -27 326q0 107 13 199q8 60 77 60q30 0 53 -14q29 -17 25 -45q-20 -153 -20 -260q0 -67 8 -147q4 -37 25 -43q51 6 152 28
q11 2 16 30q4 21 3 37q-10 142 -10 220q0 67 1 78q5 52 28 69t57 17q89 0 80 -71q-13 -101 -13 -197q0 -37 4 -105q3 -47 25 -57l-8 1q12 -1 24 -1h22q59 0 112 14q20 5 20 64q0 24 -2.5 71t-2.5 71q0 98 11 206q9 88 82 79z" />
    <glyph glyph-name="ugrave" unicode="&#xf9;" horiz-adv-x="1001" 
d="M776 700q58 2 58 -50q0 -11 -4 -31q-22 -110 -22 -245q0 -69 6 -151q4 -58 64 -83q67 -28 57 -66q-28 -110 -92 -164q-25 -20 -54 -15q-14 11 -14 27q0 11 6 30.5t7 27.5q1 14 1 25q0 35 -12 45q-21 21 -42 21q-9 0 -26 -3q-298 -2 -614 -71q-80 -6 -89 72
q-19 160 -19 309q0 111 12 211q7 60 77 60q30 0 52 -14q26 -17 22 -45q-21 -152 -21 -279q0 -53 5 -128q3 -45 23 -42q37 6 80 16l67 15q22 5 19 65l-3 78q-2 38 -2 75q0 91 8 160q4 32 25 52.5t53 19.5q87 -2 77 -76q-13 -93 -13 -299q0 -56 17 -56h12q8 -1 12 -1
q70 0 143 21q18 10 18 59v13q0 7 -1 15v24q0 74 3 150l6 150q2 36 22.5 58t55.5 22q9 0 20 -2z" />
    <glyph glyph-name="uacute" unicode="&#xfa;" horiz-adv-x="798" 
d="M108 618q45 29 139 77q20 8 37 8q33 0 49 -24.5t12 -58.5q-8 -69 -8 -99q0 -37 10 -56q5 -10 18 -10q14 0 53 17q86 37 152 37q101 0 144 -80q20 -37 20 -74q0 -56 -45 -126q-63 -98 -157 -156q-88 -56 -212 -72q-12 -4 -30 -4q-37 0 -60.5 22.5t-28.5 59.5
q-11 89 -11 210q0 108 8 201q1 12 1 13v10q0 18 -8 18q-12 0 -68 -46q-31 -17 -65 -17q-24 0 -43 10q-25 12 -25 33q0 38 118 107zM524 392h-16q-127 0 -161 -93q-18 -49 -18 -90q0 -49 28 -76q13 -7 29 -7q61 0 158 114q48 56 48 96q0 56 -68 56z" />
    <glyph glyph-name="ucircumflex" unicode="&#xfb;" horiz-adv-x="823" 
d="M3 617q5 39 30.5 62t63.5 19q66 -6 66 -55q0 -8 -3 -20q-17 -71 -17 -108q0 -14 2 -21q10 -34 31 -34q15 0 46 13q85 36 155 36q101 0 141 -79q19 -38 19 -73q0 -57 -45 -128q-61 -97 -158.5 -155.5t-214.5 -71.5q-91 -10 -115 81q-18 131 -18 265q0 148 17 269zM349 399
q-114 2 -175 -88q-37 -69 -37 -116q0 -43 28 -69q11 -6 23 -6q59 0 164 126q48 58 48 99q0 43 -51 54zM755 601q-14 -108 -14 -279q0 -137 8 -251q3 -40 -32 -58q-27 -15 -69 -13q-61 17 -66 83q-7 103 -7 220q0 174 18 324q23 80 90 73q75 -8 75 -71q0 -5 -3 -28z" />
    <glyph glyph-name="udieresis" unicode="&#xfc;" horiz-adv-x="599" 
d="M2 617q6 39 30.5 62t62.5 19q66 -6 66 -55q0 -8 -3 -20q-16 -65 -16 -107q0 -15 2 -22q10 -34 31 -34q15 0 46 13q86 36 154 36q99 0 141 -79q19 -36 19 -73q0 -57 -44 -128q-60 -96 -158 -155t-216 -72q-90 -10 -114 81q-19 124 -19 265q0 142 18 269zM348 399
q-115 2 -176 -88q-36 -67 -36 -116q0 -44 27 -69q11 -6 23 -6q59 0 165 126q48 57 48 99q0 43 -51 54z" />
    <glyph glyph-name="yacute" unicode="&#xfd;" horiz-adv-x="616" 
d="M274 685q36 15 73 15q74 0 109 -47q97 -131 97 -285v-23q0 -173 -116 -263q-82 -64 -243 -82q-137 2 -182 59q-28 23 -28 44q0 20 28 48q25 13 52 13q52 0 92 -43q25 -13 54 -13q64 0 159 67q27 36 27 65q0 27 -21 42q-8 2 -18 2q-31 0 -71 -26q-10 -1 -18 -1
q-34 0 -51.5 20t-13.5 53q6 56 113 56q35 0 79 -7q16 -3 16 37v11q0 33 -15 71q-12 30 -38 65q-20 11 -38 11q-58 0 -132 -118q-29 -21 -57 -21q-24 0 -47 17t-23 40q0 15 13 37q56 95 200 156z" />
    <glyph glyph-name="thorn" unicode="&#xfe;" horiz-adv-x="961" 
d="M737 670q159 -61 159 -236q0 -114 -51 -211q-35 -66 -99 -125q-79 -74 -203 -74q-49 0 -103 14q-148 39 -174 174q-16 82 -41 78q-48 -8 -68 -22q-28 -20 -28 -61v-118q0 -9 1 -22q5 -66 -60 -68q-31 -1 -51 23q-19 21 -22 53q-11 138 -11 279q0 129 11 290q16 63 83 55
q60 -8 60 -50q0 -7 -1 -14q-15 -75 -15 -226q0 -23 1 -25q1 -3 11 0q37 10 105 32q40 13 84 119q80 151 277 151q65 0 135 -16zM487 528q-41 -37 -68.5 -106t-27.5 -126q0 -55 26 -101q49 -48 111 -48q39 0 93 20q131 79 131 232v12q0 6 -1 12q-12 150 -139 150
q-74 0 -125 -45z" />
    <glyph glyph-name="ydieresis" unicode="&#xff;" horiz-adv-x="588" 
d="M397 696q13 4 36 4q73 0 86 -56q7 -67 7 -166q0 8 -1 -93l-1 -152q0 -68 -3 -151t-81 -81q-60 18 -60 104q0 103 -13 106q-18 4 -66 -40q-114 -104 -191 -144q-36 -18 -63 -18q-24 0 -38 16q-23 27 -23 41q0 11 14 27q82 50 150 110q10 9 10 21q0 18 -26 33
q-88 50 -102 98q-13 44 -13 83q0 216 378 258zM314 573q-71 -4 -144 -68q-21 -18 -21 -48t20 -59q36 -52 130 -65q11 -3 21 -3q62 0 65 157q0 10 1 21v12q0 57 -72 53z" />
    <glyph glyph-name="ch247" unicode="&#x401;" horiz-adv-x="527" 
d="M125 454q0 -35 21 -49t173 32q13 4 29 4q53 0 58 -47q6 -51 -65 -70q-72 -6 -112 -15q-79 -17 -94 -50q-11 -24 -11 -50q0 -43 37 -71q1 -2 8 -2q38 0 198 68q14 6 32 6q43 0 56 -28q9 -19 9 -34q0 -34 -52 -54q-109 -41 -296 -88q-22 -9 -42 -9q-53 0 -66 44
q-18 62 -23 253l-2 55v51q0 96 10 147q9 44 69 69q121 51 249 80q57 13 71 7q39 -18 39 -44q0 -68 -89 -70q-160 -25 -192 -69q-15 -36 -15 -66zM75 667q-22 0 -41 12q-22 15 -22 36q0 22 20 36t43 14q22 0 42.5 -14.5t20.5 -35.5q0 -20 -21 -34t-42 -14zM261 715
q-22 0 -43 14t-21 35t21 35t43 14q21 0 42 -14.5t21 -34.5t-21 -34.5t-42 -14.5z" />
    <glyph glyph-name="ch248" unicode="&#x410;" horiz-adv-x="584" 
d="M273 688q19 13 41 13q49 0 75 -40q34 -52 43 -150q6 -64 21 -156q16 -107 32 -160q36 -121 36 -146q0 -16 -5 -20q-16 -30 -55 -30q-22 0 -43 11q-29 30 -55 106q-8 47 -41 47q-49 0 -202 -127q-38 -32 -77 -32q-59 0 -59 59q0 10 3 24l18 84q28 131 102 286
q84 176 166 231zM290 531q-22 12 -82 -123q-64 -143 -64 -185q0 -24 17 -24t60 27q110 54 104 136q-13 169 -35 169z" />
    <glyph glyph-name="ch249" unicode="&#x411;" horiz-adv-x="574" 
d="M322 693q26 5 45 5q28 0 51 -10q31 -13 31 -37q0 -41 -77 -56l-178 -34q-76 -14 -77 -85q-1 -65 20 -65q10 0 31 10q73 35 149 35q74 0 125 -35q56 -38 66 -107q3 -20 3 -36q0 -58 -38 -105q-58 -72 -172 -123.5t-208 -51.5q-37 0 -64 17q-31 20 -35 55q-10 92 -10 230
q0 80 3 194q3 103 74 130q99 38 261 69zM283 355q-47 -14 -63 -19q-40 -14 -58 -26q-46 -30 -46 -92v-20q0 -77 45 -77q14 0 43 8q74 20 111 49q50 38 58 103q1 38 -8 55q-12 23 -46 23q-16 0 -36 -4z" />
    <glyph glyph-name="ch250" unicode="&#x412;" horiz-adv-x="602" 
d="M308 700q103 0 155 -63q8 -21 8 -41q0 -39 -28 -84q-12 -19 -12 -35q0 -17 15 -29q49 -38 83 -119q10 -24 10 -46q0 -40 -25 -73q-65 -85 -186 -148q-124 -64 -228 -64q-39 0 -67 18q-33 21 -38 57q-10 69 -10 177q0 116 9 265q7 109 102 147t212 38zM166 586
q-22 -12 -31 -37q-16 -45 -16 -75q0 -46 44 -46q15 0 31 4q93 23 134 75q13 32 13 55q0 45 -64 45q-73 0 -111 -21zM283 368q-54 -5 -128 -46q-38 -30 -38 -103v-11q0 -41 13 -63q8 -16 27 -16q14 0 39 9q201 73 201 159q-19 79 -114 71z" />
    <glyph glyph-name="ch251" unicode="&#x413;" horiz-adv-x="516" 
d="M354 700q8 1 16 1q29 0 52 -13q27 -15 27 -42q0 -20 -18 -37q-14 -13 -57 -22l-204 -45q-37 -8 -41 -53q-8 -91 -8 -167q0 -42 6 -105q10 -99 10 -104q1 -14 1 -25q0 -80 -66 -89q-65 -9 -78 76q-11 71 -11 178q0 103 10 243q-4 103 66 130q41 16 118 35q96 24 177 39z
" />
    <glyph glyph-name="ch252" unicode="&#x414;" horiz-adv-x="891" 
d="M411 643q16 21 46.5 38.5t60.5 17.5q68 0 89 -92l42 -182q21 -92 35 -176q12 -73 90 -105q63 -25 57 -65q-8 -50 -49 -120q-50 -84 -93 -76q-35 7 -35 43q0 13 5 33q8 31 9 33q3 18 3 33q0 30 -14 41q-13 24 -80 40q-88 21 -170 21q-72 0 -155 -16q-64 -12 -101 -48
q-7 -7 -7 -25q0 -31 19 -79l4 -18q1 -7 1 -15q0 -29 -26 -45q-11 -7 -23 -7q-26 0 -66 56q-46 65 -62 131q-9 37 42 73q30 15 90 49q47 29 66 89q41 132 222 371zM347 320q-11 -24 -11 -47q0 -50 79 -50q14 0 32 2q60 -3 86 16t21 67q-9 91 -29 156q-17 51 -42 51
q-48 0 -136 -195z" />
    <glyph glyph-name="ch253" unicode="&#x415;" horiz-adv-x="527" 
d="M312 695q26 6 46 6q63 0 63 -43q0 -66 -89 -70q-161 -27 -191 -69q-16 -38 -16 -65q0 -36 22 -50t173 32q13 4 29 4q52 0 57 -47q6 -51 -65 -70q-71 -5 -112 -14q-79 -17 -93 -51q-11 -26 -11 -50q0 -42 37 -70q1 -2 8 -2q38 0 198 68q14 6 32 6q41 0 56 -29q9 -18 9 -33
q0 -34 -53 -54q-116 -43 -294 -88q-22 -9 -42 -9q-53 0 -67 43q-18 58 -23 254l-2 54v51q0 96 10 147q8 43 69 69q109 47 249 80z" />
    <glyph glyph-name="ch254" unicode="&#x416;" horiz-adv-x="944" 
d="M515 482q109 69 193 173q31 38 76 38q23 0 42 -15q26 -21 26 -40q0 -20 -28.5 -50t-87.5 -88q-41 -38 -100 -85q-27 -21 -27 -41q0 -13 11 -22q122 -102 220 -160q37 -22 37 -49q0 -19 -15 -38.5t-49 -19.5q-33 0 -57 15q-113 69 -245 182q1 -2 -2 -21q-5 -29 -5 -58
q0 -75 14 -124q1 -6 1 -11q0 -41 -65 -57q-76 5 -80 64q-5 43 -12 128q-1 14 2 19l2 5l-3 -3q-3 -3 -12 -10q-101 -70 -198 -186q-39 -26 -73 -26q-19 0 -31 9q-26 24 -26 45q0 16 16 36q63 78 214 216q7 6 7 21q0 20 -10 26q-130 83 -234 172q-29 25 -29 42q0 13 28 43
q19 17 46 17q42 0 66 -30q88 -88 200 -141q8 -2 12 -2q9 0 10 14q-1 -10 -1 20v26q0 67 5 122q6 62 79 63q36 0 54 -16t12 -51q-7 -39 -7 -86q0 -8 1 -35q1 -21 1 -34q-1 -8 2 -8t20 11z" />
    <glyph glyph-name="ch255" unicode="&#x417;" horiz-adv-x="585" 
d="M273 686q34 15 73 15q74 0 109 -48q48 -66 48 -133q0 -68 -53 -142q-20 -20 -20 -37t20 -26q70 -49 70 -104q0 -61 -85 -131q-76 -62 -243 -82q-137 2 -183 60q-25 19 -25 35q0 20 42 40q33 16 64 16q50 0 89 -34q23 -12 49 -12q54 0 129 49q27 26 27 49q0 45 -89 84
q-39 25 -39 44q0 15 26 30q53 31 69 64q23 49 23 87q0 25 -11 46q-14 25 -37 25q-45 0 -156 -128q-27 -21 -53 -21q-36 0 -56 36q-5 8 -5 19q0 17 15 42q55 92 202 157z" />
    <glyph glyph-name="ch256" unicode="&#x418;" horiz-adv-x="557" 
d="M130 596q3 74 -65 78q-72 5 -73 -86q0 -36 -4 -117q-4 -76 -4 -117v-25q0 -49 3 -134q3 -95 3 -134q0 -33 21.5 -49t53.5 -11q41 6 61 38q49 77 225 394q3 3 6 4q-1 -3 -3 -55q-6 -128 -6 -196q0 -103 4 -135q8 -61 74 -49q68 12 66 82q-3 136 -3 286q0 112 4 233
q1 34 -17.5 51t-52.5 14q-22 -2 -49 -17.5t-38 -33.5q-70 -124 -215 -372q2 9 2 29q1 71 3 161z" />
    <glyph glyph-name="ch257" unicode="&#x419;" horiz-adv-x="556" 
d="M211 736q24 39 48 92q14 31 74 31q74 0 74 -33q0 -21 -43 -60q-25 -21 -74 -64q-37 -36 -72 -36q-22 0 -22 22q0 16 15 48zM129 596q3 74 -65 78q-72 5 -73 -86q0 -36 -4 -117q-4 -76 -4 -117v-25q0 -49 3 -134q3 -95 3 -134q0 -33 21.5 -49t53.5 -11q41 6 61 38
q49 77 225 394q3 3 6 4q-1 -3 -3 -55q-6 -128 -6 -196q0 -103 4 -135q8 -61 74 -49q68 12 66 82q-3 136 -3 286q0 112 4 233q1 34 -17.5 51t-52.5 14q-22 -2 -49 -17.5t-38 -33.5q-70 -124 -215 -372q2 9 2 29q1 71 3 161z" />
    <glyph glyph-name="ch258" unicode="&#x41a;" horiz-adv-x="578" 
d="M316 658q31 42 79 42q28 0 49.5 -16.5t21.5 -43.5q0 -24 -22 -52q-95 -95 -183 -219q-7 -10 -4 -27q2 -18 14 -28q97 -81 183 -119q55 -24 55 -63q0 -27 -26 -43q-22 -13 -51 -13q-20 0 -42 6q-130 68 -231 157q-23 5 -23 -74q0 -47 6 -92q-2 -32 -22 -53t-52 -21
t-50 21.5t-18 53.5v96q0 270 -16 403q-2 65 62 86q12 4 27 4q62 0 64 -71l4 -123q1 -28 4 -28t25 25q33 37 75 94q36 49 71 98z" />
    <glyph glyph-name="ch259" unicode="&#x41b;" horiz-adv-x="621" 
d="M399 637q84 -161 159 -564q4 -56 -55 -69q-13 -3 -25 -3q-30 0 -50 15q-23 17 -24 46q-5 93 -18 173q-8 50 -38 163q-12 48 -33 120q-15 34 -20 34q-9 0 -66 -139q-47 -113 -91 -326q-7 -32 -35.5 -49t-63.5 -17q-55 11 -55 67q0 14 2 22q81 326 223 529q39 56 96 62
q58 6 94 -64z" />
    <glyph glyph-name="ch260" unicode="&#x41c;" horiz-adv-x="771" 
d="M542 696q7 1 15 1q50 0 64 -45q25 -81 66 -306q21 -115 21 -199v-17q0 -9 -1 -18q2 -25 -26.5 -41.5t-54.5 -16.5q-63 0 -63 71q0 12 2.5 37t2.5 39q0 88 -21 235v3q-43 -140 -137 -383q-21 -54 -66 -54q-42 0 -52 49l-29 147q-10 68 -27 178q-12 64 -18 79
q-20 -30 -41 -114q-12 -48 -22 -101l-18 -89q-3 -35 -31.5 -59.5t-64.5 -24.5q-55 0 -55 54q0 11 3 25q7 62 60 226q45 140 92 224q57 101 105 101q47 0 68 -94q14 -93 42 -280q10 -69 8 -69q2 0 8 22q7 30 10 37l48 135q18 55 60 163q12 29 22 47q18 35 30 38z" />
    <glyph glyph-name="ch261" unicode="&#x41d;" horiz-adv-x="496" 
d="M292 611q-2 75 56 88q13 3 20 3q56 0 58 -77q1 -30 5 -116q4 -74 4 -117v-25q0 4 -6 -269q-2 -70 -68 -70q-56 0 -56 63q0 76 -2 148q4 23 4 37t-5 17q-2 0 -59 -16q-120 -34 -120 -89q0 -7 1 -21v-22q0 -150 -71 -147q-31 1 -49.5 21.5t-17.5 51.5q5 147 5 238
q0 133 -6 256q-3 67 67 74q31 3 50 -15t19 -49v-28q0 -23 -1 -68.5t-1 -68.5q0 -53 34 -53q20 0 46 14l48 26q49 28 48 83z" />
    <glyph glyph-name="ch262" unicode="&#x41e;" horiz-adv-x="719" 
d="M396 700q115 0 185 -79q74 -84 74 -200q0 -87 -41 -192q-64 -104 -152 -162q-95 -63 -200 -67q-61 -2 -124 28q-56 27 -93 79q-59 101 -59 186v11q0 6 1 11q10 107 33 156q31 65 95 127q38 38 95 62q96 40 186 40zM361 576q-80 -6 -156 -86q-67 -71 -73 -152
q-7 -95 47 -159q39 -33 93 -33q90 0 142 45q36 31 73 97q35 62 35 121q0 60 -39 112q-42 57 -100 57q-10 0 -22 -2z" />
    <glyph glyph-name="ch263" unicode="&#x41f;" horiz-adv-x="513" 
d="M347 699q12 3 29 3q65 0 67 -74q1 -31 5 -116q4 -74 4 -117v-35q0 -74 -2 -142l-4 -133q-5 -23 -24.5 -37.5t-43.5 -14.5q-29 0 -47.5 17t-20.5 46q2 46 2 89v81q0 149 -6 209q-1 30 -7 70q-9 15 -30 13q-75 -9 -115 -25q-23 -9 -25 -68q-4 -121 -4 -226q0 -23 1 -82
q1 -51 1 -81q0 -31 -21.5 -52.5t-51.5 -21.5q-29 0 -46.5 20t-18.5 50q6 93 6 241q0 161 -11 265q2 58 57 64q144 17 306 57z" />
    <glyph glyph-name="ch264" unicode="&#x420;" horiz-adv-x="571" 
d="M136 683q88 18 152 18q223 0 223 -206q0 -42 -6 -63q-7 -28 -30 -56q-61 -75 -184 -131q-58 -26 -119 -41q-32 -8 -34 -65l-3 -79q-1 -27 -22 -41.5t-49 -14.5q-36 0 -57.5 21.5t-18.5 57.5q7 78 7 228v113q0 53 -2 103t11.5 83t55.5 51q23 10 76 22zM337 593
q-18 13 -46 13q-14 0 -33 -3q-52 -8 -76 -22q-35 -20 -41 -63q-7 -53 -7 -83q0 -67 16 -87q9 -12 30 -12q22 0 69 16q128 44 128 139q0 26 -7 49q-11 36 -33 53z" />
    <glyph glyph-name="ch265" unicode="&#x421;" horiz-adv-x="668" 
d="M294 677q72 23 126 23q160 0 185 -171q1 -29 -19 -47.5t-49 -18.5q-46 0 -69 44q-26 88 -68 88q-15 0 -35 -9q-157 -102 -224 -307q-10 -30 -10 -60q0 -64 42 -89q54 -32 100 -32q71 0 142 79q46 71 100 71q19 0 33.5 -10.5t14.5 -29.5q0 -6 -2 -12q-15 -142 -210 -188
q-58 -8 -107 -8q-142 0 -208 70q-36 38 -49 90q-2 16 -2 35q0 84 52 192q44 94 109.5 170.5t147.5 119.5z" />
    <glyph glyph-name="ch266" unicode="&#x422;" horiz-adv-x="726" 
d="M539 695q23 6 39 6q30 0 53 -15q27 -17 27 -45q0 -45 -64 -66q-84 -15 -141 -33q-53 -17 -57 -77q-11 -153 -19 -409q-8 -59 -63 -59q-35 0 -62.5 24.5t-25.5 59.5l13 183q4 84 4 154v21q2 18 2 30q0 38 -24 36q-100 -8 -158 -20q-14 -3 -26 -3q-47 0 -47 40
q0 31 24.5 57t55.5 35q115 13 253 35q108 18 216 46z" />
    <glyph glyph-name="ch267" unicode="&#x423;" horiz-adv-x="641" 
d="M433 663q21 38 64 38q13 0 25 -6q55 -10 55 -52q0 -14 -8 -36q-97 -132 -147 -231q-81 -160 -121 -315q-28 -64 -120 -60q-34 1 -34 26q0 15 13 56.5t40 122.5q6 17 6 34q0 56 -64 136q-58 73 -136 201q-23 38 -23 58q0 25 29 39q19 20 48 20q41 0 62 -33
q42 -110 97 -173q52 -78 67 -78q12 0 26 27q10 19 69 129z" />
    <glyph glyph-name="ch268" unicode="&#x424;" horiz-adv-x="854" 
d="M386 666q105 35 176 35q91 0 150 -36q70 -42 77 -127q1 -12 1 -23q0 -148 -153 -238q-61 -36 -129 -52q-50 -12 -50 -52q0 -19 2 -57t2 -57q0 -24 -24 -41t-49 -16q-8 -1 -15 -1q-24 0 -40.5 14.5t-16.5 39.5l1 74q2 18 2 30q0 39 -22 35q-28 -5 -68 -5q-183 0 -236 153
q-8 35 -8 63q0 85 62 146q53 51 142 77q60 18 127 18q35 0 69 20zM587 596q-67 0 -125 -37q-17 -11 -17 -74q0 -24 3 -54q-1 -7 -1 -14v-14q0 -80 46 -72q72 13 111 48t60 96q4 20 4 39q0 82 -81 82zM282 531q-116 2 -170 -94q-7 -22 -7 -46q0 -55 41 -90q28 -12 62 -12
q38 0 94 18q16 5 16 79q0 99 -17 129q-9 16 -19 16z" />
    <glyph glyph-name="ch269" unicode="&#x425;" horiz-adv-x="646" 
d="M462 684q34 22 68 22q24 0 35 -14q17 -18 17 -38q0 -23 -26 -55q-110 -91 -157 -178q-6 -11 -6 -23q0 -18 16 -40q74 -102 146 -171q27 -26 27 -55q0 -22 -14 -47q-20 -11 -41 -11q-35 0 -71 26q-49 51 -146 155q-24 27 -31 27t-28 -33q-47 -70 -137 -214
q-21 -36 -72 -36q-22 0 -39.5 13.5t-17.5 35.5q0 16 12 38q83 150 146 248q26 40 26 66q0 14 -6 26q-35 45 -68 83l-61 69q-35 39 -35 61q0 15 12.5 29t26.5 18.5t28 4.5q44 0 69 -29q48 -57 126 -136q18 -18 21 -18q6 0 27 24q80 92 153 152z" />
    <glyph glyph-name="ch270" unicode="&#x426;" horiz-adv-x="851" 
d="M559 697q12 3 22 3q68 0 70 -87q-17 -100 -17 -201q0 -98 17 -174q29 -52 85 -70q49 -16 49 -71q0 -52 -41 -137.5t-90 -85.5q-43 0 -43 53q0 17 6 50.5t6 49.5q0 54 -29 64q-37 12 -71 12q-46 0 -97 -23q-153 -69 -254 -69q-185 0 -187 212q-2 184 54 362q25 81 83 81
q14 0 29 -6q53 -22 53 -59q0 -18 -9 -41q-35 -90 -57 -241q-6 -41 -6 -74q0 -101 68 -101q13 0 31 4q135 30 218 85q31 11 27 95q-2 42 -2 83q0 72 7 195q5 86 78 91z" />
    <glyph glyph-name="ch271" unicode="&#x427;" horiz-adv-x="610" 
d="M18 630q7 24 31.5 38.5t49.5 8.5q59 -14 59 -55q0 -16 -7 -33q-35 -87 -32 -185q2 -49 21 -48q61 2 199 56q18 7 27 27q6 14 7 40q13 243 116 218q59 -15 59 -59q0 -10 -5 -30q-38 -155 -38 -331q0 -101 11 -187q2 -16 2 -27q0 -29 -12.5 -41.5t-42.5 -17.5
q-10 -4 -25 -4q-59 0 -69 82q-10 89 -9 155q-3 41 -4 40q-202 -64 -258 -64q-89 0 -106 99q-8 47 -8 102q0 102 34 216z" />
    <glyph glyph-name="ch272" unicode="&#x428;" horiz-adv-x="912" 
d="M768 699q90 -11 77 -74q-26 -129 -26 -275q0 -23 8 -173q3 -48 -20 -77q-24 -32 -71 -32q-282 0 -630 -65q-37 -7 -62 11t-31 55q-27 181 -27 326q0 107 13 199q8 60 77 60q30 0 53 -14q29 -17 25 -45q-20 -153 -20 -260q0 -67 8 -147q4 -37 25 -43q51 6 152 28
q11 2 16 30q4 21 3 37q-10 142 -10 220q0 67 1 78q5 52 28 69t57 17q89 0 80 -71q-13 -101 -13 -197q0 -37 4 -105q3 -47 25 -57l-8 1q12 -1 24 -1h22q59 0 112 14q20 5 20 64q0 24 -2.5 71t-2.5 71q0 98 11 206q9 88 82 79z" />
    <glyph glyph-name="ch273" unicode="&#x429;" horiz-adv-x="1001" 
d="M776 700q58 2 58 -50q0 -11 -4 -31q-22 -110 -22 -245q0 -69 6 -151q4 -58 64 -83q67 -28 57 -66q-28 -110 -92 -164q-25 -20 -54 -15q-14 11 -14 27q0 11 6 30.5t7 27.5q1 14 1 25q0 35 -12 45q-21 21 -42 21q-9 0 -26 -3q-298 -2 -614 -71q-80 -6 -89 72
q-19 160 -19 309q0 111 12 211q7 60 77 60q30 0 52 -14q26 -17 22 -45q-21 -152 -21 -279q0 -53 5 -128q3 -45 23 -42q37 6 80 16l67 15q22 5 19 65l-3 78q-2 38 -2 75q0 91 8 160q4 32 25 52.5t53 19.5q87 -2 77 -76q-13 -93 -13 -299q0 -56 17 -56h12q8 -1 12 -1
q70 0 143 21q18 10 18 59v13q0 7 -1 15v24q0 74 3 150l6 150q2 36 22.5 58t55.5 22q9 0 20 -2z" />
    <glyph glyph-name="ch274" unicode="&#x42a;" horiz-adv-x="798" 
d="M108 618q45 29 139 77q20 8 37 8q33 0 49 -24.5t12 -58.5q-8 -69 -8 -99q0 -37 10 -56q5 -10 18 -10q14 0 53 17q86 37 152 37q101 0 144 -80q20 -37 20 -74q0 -56 -45 -126q-63 -98 -157 -156q-88 -56 -212 -72q-12 -4 -30 -4q-37 0 -60.5 22.5t-28.5 59.5
q-11 89 -11 210q0 108 8 201q1 12 1 13v10q0 18 -8 18q-12 0 -68 -46q-31 -17 -65 -17q-24 0 -43 10q-25 12 -25 33q0 38 118 107zM524 392h-16q-127 0 -161 -93q-18 -49 -18 -90q0 -49 28 -76q13 -7 29 -7q61 0 158 114q48 56 48 96q0 56 -68 56z" />
    <glyph glyph-name="ch275" unicode="&#x42b;" horiz-adv-x="823" 
d="M3 617q5 39 30.5 62t63.5 19q66 -6 66 -55q0 -8 -3 -20q-17 -71 -17 -108q0 -14 2 -21q10 -34 31 -34q15 0 46 13q85 36 155 36q101 0 141 -79q19 -38 19 -73q0 -57 -45 -128q-61 -97 -158.5 -155.5t-214.5 -71.5q-91 -10 -115 81q-18 131 -18 265q0 148 17 269zM349 399
q-114 2 -175 -88q-37 -69 -37 -116q0 -43 28 -69q11 -6 23 -6q59 0 164 126q48 58 48 99q0 43 -51 54zM755 601q-14 -108 -14 -279q0 -137 8 -251q3 -40 -32 -58q-27 -15 -69 -13q-61 17 -66 83q-7 103 -7 220q0 174 18 324q23 80 90 73q75 -8 75 -71q0 -5 -3 -28z" />
    <glyph glyph-name="ch276" unicode="&#x42c;" horiz-adv-x="599" 
d="M2 617q6 39 30.5 62t62.5 19q66 -6 66 -55q0 -8 -3 -20q-16 -65 -16 -107q0 -15 2 -22q10 -34 31 -34q15 0 46 13q86 36 154 36q99 0 141 -79q19 -36 19 -73q0 -57 -44 -128q-60 -96 -158 -155t-216 -72q-90 -10 -114 81q-19 124 -19 265q0 142 18 269zM348 399
q-115 2 -176 -88q-36 -67 -36 -116q0 -44 27 -69q11 -6 23 -6q59 0 165 126q48 57 48 99q0 43 -51 54z" />
    <glyph glyph-name="ch277" unicode="&#x42d;" horiz-adv-x="616" 
d="M274 685q36 15 73 15q74 0 109 -47q97 -131 97 -285v-23q0 -173 -116 -263q-82 -64 -243 -82q-137 2 -182 59q-28 23 -28 44q0 20 28 48q25 13 52 13q52 0 92 -43q25 -13 54 -13q64 0 159 67q27 36 27 65q0 27 -21 42q-8 2 -18 2q-31 0 -71 -26q-10 -1 -18 -1
q-34 0 -51.5 20t-13.5 53q6 56 113 56q35 0 79 -7q16 -3 16 37v11q0 33 -15 71q-12 30 -38 65q-20 11 -38 11q-58 0 -132 -118q-29 -21 -57 -21q-24 0 -47 17t-23 40q0 15 13 37q56 95 200 156z" />
    <glyph glyph-name="ch278" unicode="&#x42e;" horiz-adv-x="961" 
d="M737 670q159 -61 159 -236q0 -114 -51 -211q-35 -66 -99 -125q-79 -74 -203 -74q-49 0 -103 14q-148 39 -174 174q-16 82 -41 78q-48 -8 -68 -22q-28 -20 -28 -61v-118q0 -9 1 -22q5 -66 -60 -68q-31 -1 -51 23q-19 21 -22 53q-11 138 -11 279q0 129 11 290q16 63 83 55
q60 -8 60 -50q0 -7 -1 -14q-15 -75 -15 -226q0 -23 1 -25q1 -3 11 0q37 10 105 32q40 13 84 119q80 151 277 151q65 0 135 -16zM487 528q-41 -37 -68.5 -106t-27.5 -126q0 -55 26 -101q49 -48 111 -48q39 0 93 20q131 79 131 232v12q0 6 -1 12q-12 150 -139 150
q-74 0 -125 -45z" />
    <glyph glyph-name="ch279" unicode="&#x42f;" horiz-adv-x="588" 
d="M397 696q13 4 36 4q73 0 86 -56q7 -67 7 -166q0 8 -1 -93l-1 -152q0 -68 -3 -151t-81 -81q-60 18 -60 104q0 103 -13 106q-18 4 -66 -40q-114 -104 -191 -144q-36 -18 -63 -18q-24 0 -38 16q-23 27 -23 41q0 11 14 27q82 50 150 110q10 9 10 21q0 18 -26 33
q-88 50 -102 98q-13 44 -13 83q0 216 378 258zM314 573q-71 -4 -144 -68q-21 -18 -21 -48t20 -59q36 -52 130 -65q11 -3 21 -3q62 0 65 157q0 10 1 21v12q0 57 -72 53z" />
    <glyph glyph-name="ch280" unicode="&#x430;" horiz-adv-x="584" 
d="M273 688q19 13 41 13q49 0 75 -40q34 -52 43 -150q6 -64 21 -156q16 -107 32 -160q36 -121 36 -146q0 -16 -5 -20q-16 -30 -55 -30q-22 0 -43 11q-29 30 -55 106q-8 47 -41 47q-49 0 -202 -127q-38 -32 -77 -32q-59 0 -59 59q0 10 3 24l18 84q28 131 102 286
q84 176 166 231zM290 531q-22 12 -82 -123q-64 -143 -64 -185q0 -24 17 -24t60 27q110 54 104 136q-13 169 -35 169z" />
    <glyph glyph-name="ch281" unicode="&#x431;" horiz-adv-x="574" 
d="M322 693q26 5 45 5q28 0 51 -10q31 -13 31 -37q0 -41 -77 -56l-178 -34q-76 -14 -77 -85q-1 -65 20 -65q10 0 31 10q73 35 149 35q74 0 125 -35q56 -38 66 -107q3 -20 3 -36q0 -58 -38 -105q-58 -72 -172 -123.5t-208 -51.5q-37 0 -64 17q-31 20 -35 55q-10 92 -10 230
q0 80 3 194q3 103 74 130q99 38 261 69zM283 355q-47 -14 -63 -19q-40 -14 -58 -26q-46 -30 -46 -92v-20q0 -77 45 -77q14 0 43 8q74 20 111 49q50 38 58 103q1 38 -8 55q-12 23 -46 23q-16 0 -36 -4z" />
    <glyph glyph-name="ch282" unicode="&#x432;" horiz-adv-x="602" 
d="M308 700q103 0 155 -63q8 -21 8 -41q0 -39 -28 -84q-12 -19 -12 -35q0 -17 15 -29q49 -38 83 -119q10 -24 10 -46q0 -40 -25 -73q-65 -85 -186 -148q-124 -64 -228 -64q-39 0 -67 18q-33 21 -38 57q-10 69 -10 177q0 116 9 265q7 109 102 147t212 38zM166 586
q-22 -12 -31 -37q-16 -45 -16 -75q0 -46 44 -46q15 0 31 4q93 23 134 75q13 32 13 55q0 45 -64 45q-73 0 -111 -21zM283 368q-54 -5 -128 -46q-38 -30 -38 -103v-11q0 -41 13 -63q8 -16 27 -16q14 0 39 9q201 73 201 159q-19 79 -114 71z" />
    <glyph glyph-name="ch283" unicode="&#x433;" horiz-adv-x="516" 
d="M354 700q8 1 16 1q29 0 52 -13q27 -15 27 -42q0 -20 -18 -37q-14 -13 -57 -22l-204 -45q-37 -8 -41 -53q-8 -91 -8 -167q0 -42 6 -105q10 -99 10 -104q1 -14 1 -25q0 -80 -66 -89q-65 -9 -78 76q-11 71 -11 178q0 103 10 243q-4 103 66 130q41 16 118 35q96 24 177 39z
" />
    <glyph glyph-name="ch284" unicode="&#x434;" horiz-adv-x="891" 
d="M411 643q16 21 46.5 38.5t60.5 17.5q68 0 89 -92l42 -182q21 -92 35 -176q12 -73 90 -105q63 -25 57 -65q-8 -50 -49 -120q-50 -84 -93 -76q-35 7 -35 43q0 13 5 33q8 31 9 33q3 18 3 33q0 30 -14 41q-13 24 -80 40q-88 21 -170 21q-72 0 -155 -16q-64 -12 -101 -48
q-7 -7 -7 -25q0 -31 19 -79l4 -18q1 -7 1 -15q0 -29 -26 -45q-11 -7 -23 -7q-26 0 -66 56q-46 65 -62 131q-9 37 42 73q30 15 90 49q47 29 66 89q41 132 222 371zM347 320q-11 -24 -11 -47q0 -50 79 -50q14 0 32 2q60 -3 86 16t21 67q-9 91 -29 156q-17 51 -42 51
q-48 0 -136 -195z" />
    <glyph glyph-name="ch285" unicode="&#x435;" horiz-adv-x="527" 
d="M312 695q26 6 46 6q63 0 63 -43q0 -66 -89 -70q-161 -27 -191 -69q-16 -38 -16 -65q0 -36 22 -50t173 32q13 4 29 4q52 0 57 -47q6 -51 -65 -70q-71 -5 -112 -14q-79 -17 -93 -51q-11 -26 -11 -50q0 -42 37 -70q1 -2 8 -2q38 0 198 68q14 6 32 6q41 0 56 -29q9 -18 9 -33
q0 -34 -53 -54q-116 -43 -294 -88q-22 -9 -42 -9q-53 0 -67 43q-18 58 -23 254l-2 54v51q0 96 10 147q8 43 69 69q109 47 249 80z" />
    <glyph glyph-name="ch286" unicode="&#x436;" horiz-adv-x="944" 
d="M515 482q109 69 193 173q31 38 76 38q23 0 42 -15q26 -21 26 -40q0 -20 -28.5 -50t-87.5 -88q-41 -38 -100 -85q-27 -21 -27 -41q0 -13 11 -22q122 -102 220 -160q37 -22 37 -49q0 -19 -15 -38.5t-49 -19.5q-33 0 -57 15q-113 69 -245 182q1 -2 -2 -21q-5 -29 -5 -58
q0 -75 14 -124q1 -6 1 -11q0 -41 -65 -57q-76 5 -80 64q-5 43 -12 128q-1 14 2 19l2 5l-3 -3q-3 -3 -12 -10q-101 -70 -198 -186q-39 -26 -73 -26q-19 0 -31 9q-26 24 -26 45q0 16 16 36q63 78 214 216q7 6 7 21q0 20 -10 26q-130 83 -234 172q-29 25 -29 42q0 13 28 43
q19 17 46 17q42 0 66 -30q88 -88 200 -141q8 -2 12 -2q9 0 10 14q-1 -10 -1 20v26q0 67 5 122q6 62 79 63q36 0 54 -16t12 -51q-7 -39 -7 -86q0 -8 1 -35q1 -21 1 -34q-1 -8 2 -8t20 11z" />
    <glyph glyph-name="ch287" unicode="&#x437;" horiz-adv-x="585" 
d="M273 686q34 15 73 15q74 0 109 -48q48 -66 48 -133q0 -68 -53 -142q-20 -20 -20 -37t20 -26q70 -49 70 -104q0 -61 -85 -131q-76 -62 -243 -82q-137 2 -183 60q-25 19 -25 35q0 20 42 40q33 16 64 16q50 0 89 -34q23 -12 49 -12q54 0 129 49q27 26 27 49q0 45 -89 84
q-39 25 -39 44q0 15 26 30q53 31 69 64q23 49 23 87q0 25 -11 46q-14 25 -37 25q-45 0 -156 -128q-27 -21 -53 -21q-36 0 -56 36q-5 8 -5 19q0 17 15 42q55 92 202 157z" />
    <glyph glyph-name="ch288" unicode="&#x438;" horiz-adv-x="709" 
d="M581 701q64 0 64 -63q0 -13 -2 -25q-18 -109 -18 -251q0 -131 15 -274q1 -10 1 -11v-11q0 -58 -52 -66q-8 -1 -15 -1q-66 0 -70 93q-5 14 -9 14q-5 0 -30 -14q-168 -72 -281 -72q-197 0 -199 209q-2 192 53 359q26 78 86 78q15 0 26 -3q57 -15 53 -81q-22 -66 -43 -158
q-25 -108 -25 -158v-15q0 -105 64 -105q7 0 23 3q68 9 107 20q52 14 128 47q20 9 20 50v11q0 5 -1 11v44q0 170 11 276q-1 38 16 62q23 31 78 31z" />
    <glyph glyph-name="ch289" unicode="&#x439;" horiz-adv-x="709" 
d="M581 703q65 0 65 -64v-11q0 -6 -2 -13q-19 -107 -19 -251q0 -49 8.5 -145.5t8.5 -141.5v-11q0 -58 -52 -66q-8 -1 -15 -1q-66 0 -70 93q-5 15 -9 15q-5 0 -31 -15q-168 -72 -281 -72q-198 0 -200 209q-2 190 53 360q25 79 87 79q48 0 68 -32q12 -19 10 -53
q-46 -145 -67 -301q-1 -7 -1 -15v-14q0 -107 65 -107q7 0 23 3q68 9 107 20q57 15 128 47q20 9 20 50v11q0 6 -1 12v44q0 169 11 277q-1 37 17 61q23 32 77 32zM299 736q24 39 48 92q14 31 74 31q74 0 74 -33q0 -21 -43 -60q-25 -21 -74 -64q-37 -36 -72 -36q-22 0 -22 22
q0 16 15 48z" />
    <glyph glyph-name="ch290" unicode="&#x43a;" horiz-adv-x="578" 
d="M316 658q31 42 79 42q28 0 49.5 -16.5t21.5 -43.5q0 -24 -22 -52q-95 -95 -183 -219q-7 -10 -4 -27q2 -18 14 -28q97 -81 183 -119q55 -24 55 -63q0 -27 -26 -43q-22 -13 -51 -13q-20 0 -42 6q-130 68 -231 157q-23 5 -23 -74q0 -47 6 -92q-2 -32 -22 -53t-52 -21
t-50 21.5t-18 53.5v96q0 270 -16 403q-2 65 62 86q12 4 27 4q62 0 64 -71l4 -123q1 -28 4 -28t25 25q33 37 75 94q36 49 71 98z" />
    <glyph glyph-name="ch291" unicode="&#x43b;" horiz-adv-x="621" 
d="M399 637q84 -161 159 -564q4 -56 -55 -69q-13 -3 -25 -3q-30 0 -50 15q-23 17 -24 46q-5 93 -18 173q-8 50 -38 163q-12 48 -33 120q-15 34 -20 34q-9 0 -66 -139q-47 -113 -91 -326q-7 -32 -35.5 -49t-63.5 -17q-55 11 -55 67q0 14 2 22q81 326 223 529q39 56 96 62
q58 6 94 -64z" />
    <glyph glyph-name="ch292" unicode="&#x43c;" horiz-adv-x="771" 
d="M542 696q7 1 15 1q50 0 64 -45q25 -81 66 -306q21 -115 21 -199v-17q0 -9 -1 -18q2 -25 -26.5 -41.5t-54.5 -16.5q-63 0 -63 71q0 12 2.5 37t2.5 39q0 88 -21 235v3q-43 -140 -137 -383q-21 -54 -66 -54q-42 0 -52 49l-29 147q-10 68 -27 178q-12 64 -18 79
q-20 -30 -41 -114q-12 -48 -22 -101l-18 -89q-3 -35 -31.5 -59.5t-64.5 -24.5q-55 0 -55 54q0 11 3 25q7 62 60 226q45 140 92 224q57 101 105 101q47 0 68 -94q14 -93 42 -280q10 -69 8 -69q2 0 8 22q7 30 10 37l48 135q18 55 60 163q12 29 22 47q18 35 30 38z" />
    <glyph glyph-name="ch293" unicode="&#x43d;" horiz-adv-x="496" 
d="M292 611q-2 75 56 88q13 3 20 3q56 0 58 -77q1 -30 5 -116q4 -74 4 -117v-25q0 4 -6 -269q-2 -70 -68 -70q-56 0 -56 63q0 76 -2 148q4 23 4 37t-5 17q-2 0 -59 -16q-120 -34 -120 -89q0 -7 1 -21v-22q0 -150 -71 -147q-31 1 -49.5 21.5t-17.5 51.5q5 147 5 238
q0 133 -6 256q-3 67 67 74q31 3 50 -15t19 -49v-28q0 -23 -1 -68.5t-1 -68.5q0 -53 34 -53q20 0 46 14l48 26q49 28 48 83z" />
    <glyph glyph-name="ch294" unicode="&#x43e;" horiz-adv-x="719" 
d="M396 700q115 0 185 -79q74 -84 74 -200q0 -87 -41 -192q-64 -104 -152 -162q-95 -63 -200 -67q-61 -2 -124 28q-56 27 -93 79q-59 101 -59 186v11q0 6 1 11q10 107 33 156q31 65 95 127q38 38 95 62q96 40 186 40zM361 576q-80 -6 -156 -86q-67 -71 -73 -152
q-7 -95 47 -159q39 -33 93 -33q90 0 142 45q36 31 73 97q35 62 35 121q0 60 -39 112q-42 57 -100 57q-10 0 -22 -2z" />
    <glyph glyph-name="ch295" unicode="&#x43f;" horiz-adv-x="513" 
d="M347 699q12 3 29 3q65 0 67 -74q1 -31 5 -116q4 -74 4 -117v-35q0 -74 -2 -142l-4 -133q-5 -23 -24.5 -37.5t-43.5 -14.5q-29 0 -47.5 17t-20.5 46q2 46 2 89v81q0 149 -6 209q-1 30 -7 70q-9 15 -30 13q-75 -9 -115 -25q-23 -9 -25 -68q-4 -121 -4 -226q0 -23 1 -82
q1 -51 1 -81q0 -31 -21.5 -52.5t-51.5 -21.5q-29 0 -46.5 20t-18.5 50q6 93 6 241q0 161 -11 265q2 58 57 64q144 17 306 57z" />
    <glyph glyph-name="ch296" unicode="&#x440;" horiz-adv-x="571" 
d="M136 683q88 18 152 18q223 0 223 -206q0 -42 -6 -63q-7 -28 -30 -56q-61 -75 -184 -131q-58 -26 -119 -41q-32 -8 -34 -65l-3 -79q-1 -27 -22 -41.5t-49 -14.5q-36 0 -57.5 21.5t-18.5 57.5q7 78 7 228v113q0 53 -2 103t11.5 83t55.5 51q23 10 76 22zM337 593
q-18 13 -46 13q-14 0 -33 -3q-52 -8 -76 -22q-35 -20 -41 -63q-7 -53 -7 -83q0 -67 16 -87q9 -12 30 -12q22 0 69 16q128 44 128 139q0 26 -7 49q-11 36 -33 53z" />
    <glyph glyph-name="ch297" unicode="&#x441;" horiz-adv-x="668" 
d="M294 677q72 23 126 23q160 0 185 -171q1 -29 -19 -47.5t-49 -18.5q-46 0 -69 44q-26 88 -68 88q-15 0 -35 -9q-157 -102 -224 -307q-10 -30 -10 -60q0 -64 42 -89q54 -32 100 -32q71 0 142 79q46 71 100 71q19 0 33.5 -10.5t14.5 -29.5q0 -6 -2 -12q-15 -142 -210 -188
q-58 -8 -107 -8q-142 0 -208 70q-36 38 -49 90q-2 16 -2 35q0 84 52 192q44 94 109.5 170.5t147.5 119.5z" />
    <glyph glyph-name="ch298" unicode="&#x442;" horiz-adv-x="726" 
d="M539 695q23 6 39 6q30 0 53 -15q27 -17 27 -45q0 -45 -64 -66q-84 -15 -141 -33q-53 -17 -57 -77q-11 -153 -19 -409q-8 -59 -63 -59q-35 0 -62.5 24.5t-25.5 59.5l13 183q4 84 4 154v21q2 18 2 30q0 38 -24 36q-100 -8 -158 -20q-14 -3 -26 -3q-47 0 -47 40
q0 31 24.5 57t55.5 35q115 13 253 35q108 18 216 46z" />
    <glyph glyph-name="ch299" unicode="&#x443;" horiz-adv-x="641" 
d="M433 663q21 38 64 38q13 0 25 -6q55 -10 55 -52q0 -14 -8 -36q-97 -132 -147 -231q-81 -160 -121 -315q-28 -64 -120 -60q-34 1 -34 26q0 15 13 56.5t40 122.5q6 17 6 34q0 56 -64 136q-58 73 -136 201q-23 38 -23 58q0 25 29 39q19 20 48 20q41 0 62 -33
q42 -110 97 -173q52 -78 67 -78q12 0 26 27q10 19 69 129z" />
    <glyph glyph-name="ch300" unicode="&#x444;" horiz-adv-x="854" 
d="M386 666q105 35 176 35q91 0 150 -36q70 -42 77 -127q1 -12 1 -23q0 -148 -153 -238q-61 -36 -129 -52q-50 -12 -50 -52q0 -19 2 -57t2 -57q0 -24 -24 -41t-49 -16q-8 -1 -15 -1q-24 0 -40.5 14.5t-16.5 39.5l1 74q2 18 2 30q0 39 -22 35q-28 -5 -68 -5q-183 0 -236 153
q-8 35 -8 63q0 85 62 146q53 51 142 77q60 18 127 18q35 0 69 20zM587 596q-67 0 -125 -37q-17 -11 -17 -74q0 -24 3 -54q-1 -7 -1 -14v-14q0 -80 46 -72q72 13 111 48t60 96q4 20 4 39q0 82 -81 82zM282 531q-116 2 -170 -94q-7 -22 -7 -46q0 -55 41 -90q28 -12 62 -12
q38 0 94 18q16 5 16 79q0 99 -17 129q-9 16 -19 16z" />
    <glyph glyph-name="ch301" unicode="&#x445;" horiz-adv-x="646" 
d="M462 684q34 22 68 22q24 0 35 -14q17 -18 17 -38q0 -23 -26 -55q-110 -91 -157 -178q-6 -11 -6 -23q0 -18 16 -40q74 -102 146 -171q27 -26 27 -55q0 -22 -14 -47q-20 -11 -41 -11q-35 0 -71 26q-49 51 -146 155q-24 27 -31 27t-28 -33q-47 -70 -137 -214
q-21 -36 -72 -36q-22 0 -39.5 13.5t-17.5 35.5q0 16 12 38q83 150 146 248q26 40 26 66q0 14 -6 26q-35 45 -68 83l-61 69q-35 39 -35 61q0 15 12.5 29t26.5 18.5t28 4.5q44 0 69 -29q48 -57 126 -136q18 -18 21 -18q6 0 27 24q80 92 153 152z" />
    <glyph glyph-name="ch302" unicode="&#x446;" horiz-adv-x="851" 
d="M559 697q12 3 22 3q68 0 70 -87q-17 -100 -17 -201q0 -98 17 -174q29 -52 85 -70q49 -16 49 -71q0 -52 -41 -137.5t-90 -85.5q-43 0 -43 53q0 17 6 50.5t6 49.5q0 54 -29 64q-37 12 -71 12q-46 0 -97 -23q-153 -69 -254 -69q-185 0 -187 212q-2 184 54 362q25 81 83 81
q14 0 29 -6q53 -22 53 -59q0 -18 -9 -41q-35 -90 -57 -241q-6 -41 -6 -74q0 -101 68 -101q13 0 31 4q135 30 218 85q31 11 27 95q-2 42 -2 83q0 72 7 195q5 86 78 91z" />
    <glyph glyph-name="ch303" unicode="&#x447;" horiz-adv-x="610" 
d="M18 630q7 24 31.5 38.5t49.5 8.5q59 -14 59 -55q0 -16 -7 -33q-35 -87 -32 -185q2 -49 21 -48q61 2 199 56q18 7 27 27q6 14 7 40q13 243 116 218q59 -15 59 -59q0 -10 -5 -30q-38 -155 -38 -331q0 -101 11 -187q2 -16 2 -27q0 -29 -12.5 -41.5t-42.5 -17.5
q-10 -4 -25 -4q-59 0 -69 82q-10 89 -9 155q-3 41 -4 40q-202 -64 -258 -64q-89 0 -106 99q-8 47 -8 102q0 102 34 216z" />
    <glyph glyph-name="ch304" unicode="&#x448;" horiz-adv-x="912" 
d="M768 699q90 -11 77 -74q-26 -129 -26 -275q0 -23 8 -173q3 -48 -20 -77q-24 -32 -71 -32q-282 0 -630 -65q-37 -7 -62 11t-31 55q-27 181 -27 326q0 107 13 199q8 60 77 60q30 0 53 -14q29 -17 25 -45q-20 -153 -20 -260q0 -67 8 -147q4 -37 25 -43q51 6 152 28
q11 2 16 30q4 21 3 37q-10 142 -10 220q0 67 1 78q5 52 28 69t57 17q89 0 80 -71q-13 -101 -13 -197q0 -37 4 -105q3 -47 25 -57l-8 1q12 -1 24 -1h22q59 0 112 14q20 5 20 64q0 24 -2.5 71t-2.5 71q0 98 11 206q9 88 82 79z" />
    <glyph glyph-name="ch305" unicode="&#x449;" horiz-adv-x="1001" 
d="M776 700q58 2 58 -50q0 -11 -4 -31q-22 -110 -22 -245q0 -69 6 -151q4 -58 64 -83q67 -28 57 -66q-28 -110 -92 -164q-25 -20 -54 -15q-14 11 -14 27q0 11 6 30.5t7 27.5q1 14 1 25q0 35 -12 45q-21 21 -42 21q-9 0 -26 -3q-298 -2 -614 -71q-80 -6 -89 72
q-19 160 -19 309q0 111 12 211q7 60 77 60q30 0 52 -14q26 -17 22 -45q-21 -152 -21 -279q0 -53 5 -128q3 -45 23 -42q37 6 80 16l67 15q22 5 19 65l-3 78q-2 38 -2 75q0 91 8 160q4 32 25 52.5t53 19.5q87 -2 77 -76q-13 -93 -13 -299q0 -56 17 -56h12q8 -1 12 -1
q70 0 143 21q18 10 18 59v13q0 7 -1 15v24q0 74 3 150l6 150q2 36 22.5 58t55.5 22q9 0 20 -2z" />
    <glyph glyph-name="ch306" unicode="&#x44a;" horiz-adv-x="798" 
d="M108 618q45 29 139 77q20 8 37 8q33 0 49 -24.5t12 -58.5q-8 -69 -8 -99q0 -37 10 -56q5 -10 18 -10q14 0 53 17q86 37 152 37q101 0 144 -80q20 -37 20 -74q0 -56 -45 -126q-63 -98 -157 -156q-88 -56 -212 -72q-12 -4 -30 -4q-37 0 -60.5 22.5t-28.5 59.5
q-11 89 -11 210q0 108 8 201q1 12 1 13v10q0 18 -8 18q-12 0 -68 -46q-31 -17 -65 -17q-24 0 -43 10q-25 12 -25 33q0 38 118 107zM524 392h-16q-127 0 -161 -93q-18 -49 -18 -90q0 -49 28 -76q13 -7 29 -7q61 0 158 114q48 56 48 96q0 56 -68 56z" />
    <glyph glyph-name="ch307" unicode="&#x44b;" horiz-adv-x="823" 
d="M3 617q5 39 30.5 62t63.5 19q66 -6 66 -55q0 -8 -3 -20q-17 -71 -17 -108q0 -14 2 -21q10 -34 31 -34q15 0 46 13q85 36 155 36q101 0 141 -79q19 -38 19 -73q0 -57 -45 -128q-61 -97 -158.5 -155.5t-214.5 -71.5q-91 -10 -115 81q-18 131 -18 265q0 148 17 269zM349 399
q-114 2 -175 -88q-37 -69 -37 -116q0 -43 28 -69q11 -6 23 -6q59 0 164 126q48 58 48 99q0 43 -51 54zM755 601q-14 -108 -14 -279q0 -137 8 -251q3 -40 -32 -58q-27 -15 -69 -13q-61 17 -66 83q-7 103 -7 220q0 174 18 324q23 80 90 73q75 -8 75 -71q0 -5 -3 -28z" />
    <glyph glyph-name="ch308" unicode="&#x44c;" horiz-adv-x="599" 
d="M2 617q6 39 30.5 62t62.5 19q66 -6 66 -55q0 -8 -3 -20q-16 -65 -16 -107q0 -15 2 -22q10 -34 31 -34q15 0 46 13q86 36 154 36q99 0 141 -79q19 -36 19 -73q0 -57 -44 -128q-60 -96 -158 -155t-216 -72q-90 -10 -114 81q-19 124 -19 265q0 142 18 269zM348 399
q-115 2 -176 -88q-36 -67 -36 -116q0 -44 27 -69q11 -6 23 -6q59 0 165 126q48 57 48 99q0 43 -51 54z" />
    <glyph glyph-name="ch309" unicode="&#x44d;" horiz-adv-x="616" 
d="M274 685q36 15 73 15q74 0 109 -47q97 -131 97 -285v-23q0 -173 -116 -263q-82 -64 -243 -82q-137 2 -182 59q-28 23 -28 44q0 20 28 48q25 13 52 13q52 0 92 -43q25 -13 54 -13q64 0 159 67q27 36 27 65q0 27 -21 42q-8 2 -18 2q-31 0 -71 -26q-10 -1 -18 -1
q-34 0 -51.5 20t-13.5 53q6 56 113 56q35 0 79 -7q16 -3 16 37v11q0 33 -15 71q-12 30 -38 65q-20 11 -38 11q-58 0 -132 -118q-29 -21 -57 -21q-24 0 -47 17t-23 40q0 15 13 37q56 95 200 156z" />
    <glyph glyph-name="ch310" unicode="&#x44e;" horiz-adv-x="961" 
d="M737 670q159 -61 159 -236q0 -114 -51 -211q-35 -66 -99 -125q-79 -74 -203 -74q-49 0 -103 14q-148 39 -174 174q-16 82 -41 78q-48 -8 -68 -22q-28 -20 -28 -61v-118q0 -9 1 -22q5 -66 -60 -68q-31 -1 -51 23q-19 21 -22 53q-11 138 -11 279q0 129 11 290q16 63 83 55
q60 -8 60 -50q0 -7 -1 -14q-15 -75 -15 -226q0 -23 1 -25q1 -3 11 0q37 10 105 32q40 13 84 119q80 151 277 151q65 0 135 -16zM487 528q-41 -37 -68.5 -106t-27.5 -126q0 -55 26 -101q49 -48 111 -48q39 0 93 20q131 79 131 232v12q0 6 -1 12q-12 150 -139 150
q-74 0 -125 -45z" />
    <glyph glyph-name="ch311" unicode="&#x44f;" horiz-adv-x="588" 
d="M397 696q13 4 36 4q73 0 86 -56q7 -67 7 -166q0 8 -1 -93l-1 -152q0 -68 -3 -151t-81 -81q-60 18 -60 104q0 103 -13 106q-18 4 -66 -40q-114 -104 -191 -144q-36 -18 -63 -18q-24 0 -38 16q-23 27 -23 41q0 11 14 27q82 50 150 110q10 9 10 21q0 18 -26 33
q-88 50 -102 98q-13 44 -13 83q0 216 378 258zM314 573q-71 -4 -144 -68q-21 -18 -21 -48t20 -59q36 -52 130 -65q11 -3 21 -3q62 0 65 157q0 10 1 21v12q0 57 -72 53z" />
    <glyph glyph-name="ch312" unicode="&#x451;" horiz-adv-x="527" 
d="M125 454q0 -35 21 -49t173 32q13 4 29 4q53 0 58 -47q6 -51 -65 -70q-72 -6 -112 -15q-79 -17 -94 -50q-11 -24 -11 -50q0 -43 37 -71q1 -2 8 -2q38 0 198 68q14 6 32 6q43 0 56 -28q9 -19 9 -34q0 -34 -52 -54q-109 -41 -296 -88q-22 -9 -42 -9q-53 0 -66 44
q-18 62 -23 253l-2 55v51q0 96 10 147q9 44 69 69q121 51 249 80q57 13 71 7q39 -18 39 -44q0 -68 -89 -70q-160 -25 -192 -69q-15 -36 -15 -66zM75 667q-22 0 -41 12q-22 15 -22 36q0 22 20 36t43 14q22 0 42.5 -14.5t20.5 -35.5q0 -20 -21 -34t-42 -14zM261 715
q-22 0 -43 14t-21 35t21 35t43 14q21 0 42 -14.5t21 -34.5t-21 -34.5t-42 -14.5z" />
    <glyph glyph-name="quoteleft" unicode="&#x2018;" 
 />
    <glyph glyph-name="quoteright" unicode="&#x2019;" 
 />
    <glyph glyph-name="quotedblleft" unicode="&#x201c;" horiz-adv-x="503" 
d="M12 715q17 29 45 89q14 29 71 29q22 0 43 -6q29 -8 29 -25q0 -20 -41 -58q-24 -20 -71 -62q-37 -35 -70 -35q-21 0 -21 21q0 15 15 47zM258 752q11 22 25 51.5t70 29.5q22 0 43 -7q30 -9 30 -25q0 -20 -41 -58q-24 -20 -71 -62q-37 -35 -70 -35q-21 0 -21 21q0 18 35 85z
" />
    <glyph glyph-name="quotedblright" unicode="&#x201d;" horiz-adv-x="502" 
d="M391 744l-25 -50q-14 -29 -70 -29q-73 0 -73 31q0 20 42 58q23 20 70 62q37 35 70 35q21 0 21 -21q0 -16 -35 -86zM165 744q-2 -4 -25 -49q-15 -30 -70 -30q-22 0 -43 7q-30 9 -30 25q0 20 42 58q23 20 70 62q37 35 70 35q21 0 21 -21q0 -14 -35 -87z" />
    <glyph glyph-name="ellipsis" unicode="&#x2026;" horiz-adv-x="657" 
d="M499 0q-29 0 -52 17q-26 19 -26 47q0 29 24 47t54 18q28 0 52.5 -19t24.5 -46t-25 -45.5t-52 -18.5zM295 0q-29 0 -52 17q-26 19 -26 47q0 29 24 47t54 18q28 0 52.5 -19t24.5 -46t-25 -45.5t-52 -18.5zM80 0q-29 0 -52 17q-26 19 -26 47t25 48q24 17 53 17
q28 0 52.5 -18.5t24.5 -46.5q0 -27 -24.5 -45.5t-52.5 -18.5z" />
    <glyph glyph-name="ch313" unicode="&#x2116;" 
 />
    <glyph glyph-name="trademark" unicode="&#x2122;" 
 />
    <glyph glyph-name="glyph11" horiz-adv-x="0" 
 />
    <glyph glyph-name="germandbls" horiz-adv-x="616" 
d="M274 685q36 15 73 15q74 0 109 -47q97 -131 97 -285v-23q0 -173 -116 -263q-82 -64 -243 -82q-137 2 -182 59q-28 23 -28 44q0 20 28 48q25 13 52 13q52 0 92 -43q25 -13 54 -13q64 0 159 67q27 36 27 65q0 27 -21 42q-8 2 -18 2q-31 0 -71 -26q-10 -1 -18 -1
q-34 0 -51.5 20t-13.5 53q6 56 113 56q35 0 79 -7q16 -3 16 37v11q0 33 -15 71q-12 30 -38 65q-20 11 -38 11q-58 0 -132 -118q-29 -21 -57 -21q-24 0 -47 17t-23 40q0 15 13 37q56 95 200 156z" />
    <glyph glyph-name="glyph14" horiz-adv-x="0" 
 />
  </font>
</defs>
</svg>
