<svg width="42" height="42" viewBox="0 0 42 42" fill="none" xmlns="http://www.w3.org/2000/svg">
<path fill-rule="evenodd" clip-rule="evenodd" d="M25.83 23.2225L35.8575 33.25L33.25 35.8575L23.2225 25.83C21.35 27.1775 19.0925 28 16.625 28C10.3425 28 5.25 22.9075 5.25 16.625C5.25 10.3425 10.3425 5.25 16.625 5.25C22.9075 5.25 28 10.3425 28 16.625C28 19.0925 27.1775 21.35 25.83 23.2225ZM16.625 8.75C12.2675 8.75 8.75 12.2675 8.75 16.625C8.75 20.9825 12.2675 24.5 16.625 24.5C20.9825 24.5 24.5 20.9825 24.5 16.625C24.5 12.2675 20.9825 8.75 16.625 8.75Z" fill="#6750A4"/>
</svg>
